<svg version="1.1" viewBox="0.0 0.0 600.0 371.0" fill="none" stroke="none" stroke-linecap="square" stroke-miterlimit="10" width="600" height="371" xmlns:xlink="http://www.w3.org/1999/xlink" xmlns="http://www.w3.org/2000/svg"><path fill="#ffffff" d="M0 0L600.0 0L600.0 371.0L0 371.0L0 0Z" fill-rule="nonzero"/><path fill="#ff994d" d="M269.40466 58.096775C279.46582 55.9824 289.71906 54.916668 300.0 54.916668L300.0 203.68333Z" fill-rule="nonzero"/><path fill="#71c287" d="M249.65541 63.69425C256.10178 61.375935 262.70056 59.505657 269.40466 58.096775L300.0 203.68333Z" fill-rule="nonzero"/><path fill="#fcd04f" d="M240.11737 67.50114C243.25195 66.12278 246.4332 64.85306 249.65541 63.69425L300.0 203.68333Z" fill-rule="nonzero"/><path fill="#f07b72" d="M205.25172 88.991196C215.82724 80.25466 227.56029 73.02279 240.11737 67.50114L300.0 203.68333Z" fill-rule="nonzero"/><path fill="#7baaf7" d="M197.56474 95.80127C200.04793 93.44346 202.61179 91.17208 205.25172 88.991196L300.0 203.68333Z" fill-rule="nonzero"/><path fill="#46bdc6" d="M190.3659 103.12545C192.68051 100.60194 195.08156 98.15909 197.56474 95.80127L300.0 203.68333Z" fill-rule="nonzero"/><path fill="#ff6d01" d="M164.8717 265.90765C139.80203 211.46555 149.85196 147.29614 190.3659 103.12545L300.0 203.68333Z" fill-rule="nonzero"/><path fill="#34a853" d="M217.61676 327.55634C194.66284 312.29056 176.402 290.94717 164.8717 265.90765L300.0 203.68333Z" fill-rule="nonzero"/><path fill="#fbbc04" d="M254.51729 345.3267C241.45667 341.13284 229.03882 335.15274 217.61676 327.55634L300.0 203.68333Z" fill-rule="nonzero"/><path fill="#ea4335" d="M264.3978 348.1271C261.07306 347.30765 257.7776 346.3736 254.51729 345.3267L300.0 203.68333Z" fill-rule="nonzero"/><path fill="#4285f4" d="M300.0 54.916668C357.45438 54.916668 409.77304 88.00098 434.40332 139.90817C459.03357 191.81537 451.57217 253.26567 415.2354 297.7701C378.89865 342.27457 320.18268 361.87683 264.3978 348.1271L300.0 203.68333Z" fill-rule="nonzero"/><path fill="#1a1a1a" d="M19.425 65.916664L19.425 57.322914L20.565624 57.322914L20.565624 64.90104L24.8 64.90104L24.8 65.916664L19.425 65.916664ZM26.503124 65.916664L26.503124 57.322914L32.70625 57.322914L32.70625 58.33854L27.64375 58.33854L27.64375 60.96354L32.39375 60.96354L32.39375 61.979164L27.64375 61.979164L27.64375 64.90104L32.909374 64.90104L32.909374 65.916664L26.503124 65.916664ZM33.534374 65.916664L36.83125 57.322914L38.05 57.322914L41.565624 65.916664L40.284374 65.916664L39.26875 63.30729L35.690624 63.30729L34.7375 65.916664L33.534374 65.916664ZM36.01875 62.385414L38.925 62.385414L38.034374 60.010414Q37.6125 58.93229 37.425 58.229164Q37.253124 59.05729 36.95625 59.86979L36.01875 62.385414ZM41.425 65.916664L41.425 57.322914L42.565624 57.322914L42.565624 61.58854L46.83125 57.322914L48.378124 57.322914L44.76875 60.80729L48.534374 65.916664L47.034374 65.916664L43.971874 61.572914L42.565624 62.93229L42.565624 65.916664L41.425 65.916664ZM49.503124 65.916664L49.503124 57.322914L55.70625 57.322914L55.70625 58.33854L50.64375 58.33854L50.64375 60.96354L55.39375 60.96354L55.39375 61.979164L50.64375 61.979164L50.64375 64.90104L55.909374 64.90104L55.909374 65.916664L49.503124 65.916664ZM57.471874 65.916664L57.471874 57.322914L60.440624 57.322914Q61.440624 57.322914 61.971874 57.447914Q62.70625 57.61979 63.221874 58.05729Q63.909374 58.635414 64.2375 59.541664Q64.58125 60.43229 64.58125 61.572914Q64.58125 62.55729 64.34688 63.30729Q64.12813 64.05729 63.76875 64.55729Q63.409374 65.05729 62.971874 65.33854Q62.55 65.61979 61.95625 65.77604Q61.3625 65.916664 60.58125 65.916664L57.471874 65.916664ZM58.6125 64.90104L60.440624 64.90104Q61.3 64.90104 61.784374 64.74479Q62.26875 64.58854 62.55 64.291664Q62.95625 63.90104 63.175 63.21354Q63.409374 62.52604 63.409374 61.55729Q63.409374 60.21354 62.95625 59.49479Q62.51875 58.760414 61.89375 58.510414Q61.425 58.33854 60.425 58.33854L58.6125 58.33854L58.6125 64.90104ZM69.47188 65.916664L69.47188 57.322914L72.44063 57.322914Q73.44063 57.322914 73.97188 57.447914Q74.70625 57.61979 75.22188 58.05729Q75.90938 58.635414 76.2375 59.541664Q76.58125 60.43229 76.58125 61.572914Q76.58125 62.55729 76.34688 63.30729Q76.12813 64.05729 75.76875 64.55729Q75.40938 65.05729 74.97188 65.33854Q74.55 65.61979 73.95625 65.77604Q73.3625 65.916664 72.58125 65.916664L69.47188 65.916664ZM70.6125 64.90104L72.44063 64.90104Q73.3 64.90104 73.78438 64.74479Q74.26875 64.58854 74.55 64.291664Q74.95625 63.90104 75.175 63.21354Q75.40938 62.52604 75.40938 61.55729Q75.40938 60.21354 74.95625 59.49479Q74.51875 58.760414 73.89375 58.510414Q73.425 58.33854 72.425 58.33854L70.6125 58.33854L70.6125 64.90104ZM77.53438 65.916664L80.83125 57.322914L82.05 57.322914L85.56563 65.916664L84.28438 65.916664L83.26875 63.30729L79.69063 63.30729L78.7375 65.916664L77.53438 65.916664ZM80.01875 62.385414L82.925 62.385414L82.03438 60.010414Q81.6125 58.93229 81.425 58.229164Q81.25313 59.05729 80.95625 59.86979L80.01875 62.385414ZM87.65938 65.916664L87.65938 58.33854L84.83125 58.33854L84.83125 57.322914L91.64375 57.322914L91.64375 58.33854L88.8 58.33854L88.8 65.916664L87.65938 65.916664ZM91.53438 65.916664L94.83125 57.322914L96.05 57.322914L99.56563 65.916664L98.28438 65.916664L97.26875 63.30729L93.69063 63.30729L92.7375 65.916664L91.53438 65.916664ZM94.01875 62.385414L96.925 62.385414L96.03438 60.010414Q95.6125 58.93229 95.425 58.229164Q95.25313 59.05729 94.95625 59.86979L94.01875 62.385414Z" fill-rule="nonzero"/><path fill="#9e9e9e" d="M19.05 80.65104L20.1125 80.510414Q20.284374 81.40104 20.721874 81.80729Q21.159374 82.197914 21.784374 82.197914Q22.534374 82.197914 23.05 81.68229Q23.565624 81.166664 23.565624 80.40104Q23.565624 79.68229 23.08125 79.21354Q22.6125 78.729164 21.878124 78.729164Q21.58125 78.729164 21.128124 78.854164L21.253124 77.916664Q21.3625 77.93229 21.425 77.93229Q22.096874 77.93229 22.628124 77.58854Q23.175 77.229164 23.175 76.49479Q23.175 75.916664 22.784374 75.541664Q22.39375 75.15104 21.76875 75.15104Q21.159374 75.15104 20.7375 75.541664Q20.33125 75.93229 20.221874 76.697914L19.159374 76.510414Q19.346874 75.46354 20.034374 74.885414Q20.721874 74.291664 21.7375 74.291664Q22.440624 74.291664 23.034374 74.604164Q23.628124 74.90104 23.940624 75.416664Q24.253124 75.93229 24.253124 76.52604Q24.253124 77.072914 23.95625 77.541664Q23.659374 77.99479 23.08125 78.260414Q23.83125 78.43229 24.253124 78.99479Q24.675 79.541664 24.675 80.385414Q24.675 81.510414 23.846874 82.291664Q23.034374 83.072914 21.784374 83.072914Q20.659374 83.072914 19.909374 82.40104Q19.159374 81.71354 19.05 80.65104ZM26.64375 82.916664L26.64375 81.71354L27.846874 81.71354L27.846874 82.916664L26.64375 82.916664ZM29.05 80.65104L30.1125 80.510414Q30.284374 81.40104 30.721874 81.80729Q31.159374 82.197914 31.784374 82.197914Q32.534374 82.197914 33.05 81.68229Q33.565624 81.166664 33.565624 80.40104Q33.565624 79.68229 33.08125 79.21354Q32.6125 78.729164 31.878124 78.729164Q31.58125 78.729164 31.128124 78.854164L31.253124 77.916664Q31.3625 77.93229 31.425 77.93229Q32.096874 77.93229 32.628124 77.58854Q33.175 77.229164 33.175 76.49479Q33.175 75.916664 32.784374 75.541664Q32.39375 75.15104 31.76875 75.15104Q31.159374 75.15104 30.7375 75.541664Q30.33125 75.93229 30.221874 76.697914L29.159374 76.510414Q29.346874 75.46354 30.034374 74.885414Q30.721874 74.291664 31.7375 74.291664Q32.440624 74.291664 33.034374 74.604164Q33.628124 74.90104 33.940624 75.416664Q34.253124 75.93229 34.253124 76.52604Q34.253124 77.072914 33.95625 77.541664Q33.659374 77.99479 33.08125 78.260414Q33.83125 78.43229 34.253124 78.99479Q34.675 79.541664 34.675 80.385414Q34.675 81.510414 33.846874 82.291664Q33.034374 83.072914 31.784374 83.072914Q30.659374 83.072914 29.909374 82.40104Q29.159374 81.71354 29.05 80.65104ZM36.253124 76.385414Q36.253124 75.46354 36.70625 74.822914Q37.175 74.18229 38.05 74.18229Q38.8625 74.18229 39.39375 74.760414Q39.925 75.33854 39.925 76.447914Q39.925 77.541664 39.378124 78.135414Q38.846874 78.71354 38.065624 78.71354Q37.284374 78.71354 36.76875 78.135414Q36.253124 77.55729 36.253124 76.385414ZM38.08125 74.90104Q37.690624 74.90104 37.425 75.24479Q37.175 75.58854 37.175 76.49479Q37.175 77.322914 37.425 77.666664Q37.690624 77.99479 38.08125 77.99479Q38.4875 77.99479 38.7375 77.65104Q39.003124 77.30729 39.003124 76.416664Q39.003124 75.572914 38.7375 75.24479Q38.471874 74.90104 38.08125 74.90104ZM38.08125 83.229164L42.784374 74.18229L43.64375 74.18229L38.95625 83.229164L38.08125 83.229164ZM41.8 80.90104Q41.8 79.979164 42.253124 79.33854Q42.721874 78.697914 43.6125 78.697914Q44.425 78.697914 44.95625 79.27604Q45.4875 79.83854 45.4875 80.96354Q45.4875 82.05729 44.940624 82.65104Q44.409374 83.229164 43.6125 83.229164Q42.846874 83.229164 42.315624 82.65104Q41.8 82.072914 41.8 80.90104ZM43.64375 79.416664Q43.2375 79.416664 42.971874 79.760414Q42.721874 80.104164 42.721874 81.010414Q42.721874 81.822914 42.9875 82.166664Q43.253124 82.510414 43.64375 82.510414Q44.034374 82.510414 44.3 82.166664Q44.565624 81.822914 44.565624 80.916664Q44.565624 80.08854 44.3 79.760414Q44.034374 79.416664 43.64375 79.416664Z" fill-rule="nonzero"/><path stroke="#757575" stroke-width="1.0" stroke-linecap="butt" d="M18.55 70.416664L145.23334 70.416664L285.38892 63.112305" fill-rule="nonzero"/><path fill="#9e9e9e" d="M287.38892 63.112305C287.38892 62.007736 286.4935 61.112305 285.38892 61.112305C284.28436 61.112305 283.38892 62.007736 283.38892 63.112305C283.38892 64.21687 284.28436 65.112305 285.38892 65.112305C286.4935 65.112305 287.38892 64.21687 287.38892 63.112305" fill-rule="nonzero"/><path fill="#1a1a1a" d="M19.471874 96.916664L19.471874 88.322914L22.721874 88.322914Q23.565624 88.322914 24.01875 88.40104Q24.659374 88.510414 25.08125 88.80729Q25.51875 89.104164 25.76875 89.635414Q26.034374 90.166664 26.034374 90.80729Q26.034374 91.90104 25.33125 92.666664Q24.64375 93.416664 22.815624 93.416664L20.6125 93.416664L20.6125 96.916664L19.471874 96.916664ZM20.6125 92.416664L22.83125 92.416664Q23.940624 92.416664 24.39375 92.010414Q24.8625 91.58854 24.8625 90.83854Q24.8625 90.30729 24.58125 89.93229Q24.315624 89.541664 23.878124 89.416664Q23.58125 89.33854 22.815624 89.33854L20.6125 89.33854L20.6125 92.416664ZM27.128124 92.729164Q27.128124 90.58854 28.26875 89.385414Q29.425 88.166664 31.2375 88.166664Q32.440624 88.166664 33.39375 88.74479Q34.346874 89.30729 34.846874 90.322914Q35.346874 91.33854 35.346874 92.635414Q35.346874 93.93229 34.815624 94.96354Q34.284374 95.99479 33.315624 96.52604Q32.3625 97.05729 31.2375 97.05729Q30.01875 97.05729 29.065624 96.479164Q28.1125 95.885414 27.6125 94.885414Q27.128124 93.86979 27.128124 92.729164ZM28.3 92.74479Q28.3 94.30729 29.128124 95.197914Q29.971874 96.08854 31.2375 96.08854Q32.51875 96.08854 33.346874 95.197914Q34.175 94.291664 34.175 92.61979Q34.175 91.572914 33.815624 90.791664Q33.471874 90.010414 32.784374 89.58854Q32.096874 89.15104 31.253124 89.15104Q30.05 89.15104 29.175 89.979164Q28.3 90.80729 28.3 92.74479ZM36.425 96.916664L36.425 88.322914L37.565624 88.322914L37.565624 95.90104L41.8 95.90104L41.8 96.916664L36.425 96.916664ZM43.675 96.916664L43.675 88.322914L44.8 88.322914L44.8 96.916664L43.675 96.916664ZM48.659374 96.916664L48.659374 89.33854L45.83125 89.33854L45.83125 88.322914L52.64375 88.322914L52.64375 89.33854L49.8 89.33854L49.8 96.916664L48.659374 96.916664ZM53.675 96.916664L53.675 88.322914L54.8 88.322914L54.8 96.916664L53.675 96.916664ZM62.6125 93.90104L63.7375 94.197914Q63.378124 95.58854 62.45625 96.322914Q61.534374 97.05729 60.190624 97.05729Q58.8 97.05729 57.925 96.49479Q57.05 95.93229 56.596874 94.86979Q56.14375 93.791664 56.14375 92.55729Q56.14375 91.21354 56.659374 90.21354Q57.175 89.21354 58.1125 88.697914Q59.065624 88.18229 60.20625 88.18229Q61.4875 88.18229 62.3625 88.83854Q63.253124 89.49479 63.596874 90.68229L62.471874 90.947914Q62.175 90.010414 61.596874 89.58854Q61.034374 89.15104 60.175 89.15104Q59.190624 89.15104 58.51875 89.635414Q57.8625 90.104164 57.58125 90.90104Q57.315624 91.697914 57.315624 92.55729Q57.315624 93.65104 57.628124 94.46354Q57.95625 95.27604 58.628124 95.68229Q59.3 96.08854 60.096874 96.08854Q61.05 96.08854 61.70625 95.541664Q62.378124 94.99479 62.6125 93.90104ZM64.53438 96.916664L67.83125 88.322914L69.05 88.322914L72.56563 96.916664L71.28438 96.916664L70.26875 94.30729L66.69063 94.30729L65.7375 96.916664L64.53438 96.916664ZM67.01875 93.385414L69.925 93.385414L69.03438 91.010414Q68.6125 89.93229 68.425 89.229164Q68.25313 90.05729 67.95625 90.86979L67.01875 93.385414ZM72.425 96.916664L72.425 88.322914L73.56563 88.322914L73.56563 95.90104L77.8 95.90104L77.8 96.916664L72.425 96.916664Z" fill-rule="nonzero"/><path fill="#9e9e9e" d="M24.596874 112.90104L24.596874 113.916664L18.909374 113.916664Q18.909374 113.541664 19.034374 113.18229Q19.253124 112.604164 19.721874 112.041664Q20.20625 111.479164 21.1125 110.74479Q22.51875 109.58854 23.003124 108.916664Q23.503124 108.24479 23.503124 107.65104Q23.503124 107.02604 23.05 106.604164Q22.596874 106.166664 21.878124 106.166664Q21.1125 106.166664 20.659374 106.61979Q20.20625 107.072914 20.190624 107.885414L19.1125 107.77604Q19.221874 106.55729 19.940624 105.93229Q20.675 105.291664 21.909374 105.291664Q23.14375 105.291664 23.8625 105.979164Q24.58125 106.666664 24.58125 107.68229Q24.58125 108.197914 24.3625 108.697914Q24.159374 109.18229 23.659374 109.74479Q23.175 110.291664 22.05 111.24479Q21.096874 112.041664 20.815624 112.33854Q20.55 112.61979 20.378124 112.90104L24.596874 112.90104ZM26.64375 113.916664L26.64375 112.71354L27.846874 112.71354L27.846874 113.916664L26.64375 113.916664ZM34.596874 112.90104L34.596874 113.916664L28.909374 113.916664Q28.909374 113.541664 29.034374 113.18229Q29.253124 112.604164 29.721874 112.041664Q30.20625 111.479164 31.1125 110.74479Q32.51875 109.58854 33.003124 108.916664Q33.503124 108.24479 33.503124 107.65104Q33.503124 107.02604 33.05 106.604164Q32.596874 106.166664 31.878124 106.166664Q31.1125 106.166664 30.659374 106.61979Q30.20625 107.072914 30.190624 107.885414L29.1125 107.77604Q29.221874 106.55729 29.940624 105.93229Q30.675 105.291664 31.909374 105.291664Q33.14375 105.291664 33.8625 105.979164Q34.58125 106.666664 34.58125 107.68229Q34.58125 108.197914 34.3625 108.697914Q34.159374 109.18229 33.659374 109.74479Q33.175 110.291664 32.05 111.24479Q31.096874 112.041664 30.815624 112.33854Q30.55 112.61979 30.378124 112.90104L34.596874 112.90104ZM36.253124 107.385414Q36.253124 106.46354 36.70625 105.822914Q37.175 105.18229 38.05 105.18229Q38.8625 105.18229 39.39375 105.760414Q39.925 106.33854 39.925 107.447914Q39.925 108.541664 39.378124 109.135414Q38.846874 109.71354 38.065624 109.71354Q37.284374 109.71354 36.76875 109.135414Q36.253124 108.55729 36.253124 107.385414ZM38.08125 105.90104Q37.690624 105.90104 37.425 106.24479Q37.175 106.58854 37.175 107.49479Q37.175 108.322914 37.425 108.666664Q37.690624 108.99479 38.08125 108.99479Q38.4875 108.99479 38.7375 108.65104Q39.003124 108.30729 39.003124 107.416664Q39.003124 106.572914 38.7375 106.24479Q38.471874 105.90104 38.08125 105.90104ZM38.08125 114.229164L42.784374 105.18229L43.64375 105.18229L38.95625 114.229164L38.08125 114.229164ZM41.8 111.90104Q41.8 110.979164 42.253124 110.33854Q42.721874 109.697914 43.6125 109.697914Q44.425 109.697914 44.95625 110.27604Q45.4875 110.83854 45.4875 111.96354Q45.4875 113.05729 44.940624 113.65104Q44.409374 114.229164 43.6125 114.229164Q42.846874 114.229164 42.315624 113.65104Q41.8 113.072914 41.8 111.90104ZM43.64375 110.416664Q43.2375 110.416664 42.971874 110.760414Q42.721874 111.104164 42.721874 112.010414Q42.721874 112.822914 42.9875 113.166664Q43.253124 113.510414 43.64375 113.510414Q44.034374 113.510414 44.3 113.166664Q44.565624 112.822914 44.565624 111.916664Q44.565624 111.08854 44.3 110.760414Q44.034374 110.416664 43.64375 110.416664Z" fill-rule="nonzero"/><path stroke="#757575" stroke-width="1.0" stroke-linecap="butt" d="M18.55 101.416664L145.23334 101.416664L261.4617 67.710915" fill-rule="nonzero"/><path fill="#9e9e9e" d="M263.4617 67.710915C263.4617 66.606346 262.56628 65.710915 261.4617 65.710915C260.35715 65.710915 259.4617 66.606346 259.4617 67.710915C259.4617 68.81548 260.35715 69.710915 261.4617 69.710915C262.56628 69.710915 263.4617 68.81548 263.4617 67.710915" fill-rule="nonzero"/><path fill="#1a1a1a" d="M19.096874 125.15104L20.159374 125.05729Q20.2375 125.71354 20.51875 126.11979Q20.8 126.52604 21.378124 126.791664Q21.971874 127.041664 22.70625 127.041664Q23.346874 127.041664 23.846874 126.854164Q24.346874 126.65104 24.58125 126.322914Q24.83125 125.979164 24.83125 125.58854Q24.83125 125.18229 24.596874 124.885414Q24.3625 124.572914 23.83125 124.36979Q23.471874 124.229164 22.284374 123.947914Q21.1125 123.666664 20.64375 123.416664Q20.01875 123.08854 19.721874 122.61979Q19.425 122.135414 19.425 121.541664Q19.425 120.90104 19.784374 120.33854Q20.159374 119.760414 20.8625 119.479164Q21.58125 119.18229 22.440624 119.18229Q23.39375 119.18229 24.128124 119.49479Q24.8625 119.791664 25.253124 120.40104Q25.64375 120.99479 25.675 121.74479L24.58125 121.822914Q24.4875 121.010414 23.971874 120.604164Q23.471874 120.18229 22.4875 120.18229Q21.45625 120.18229 20.9875 120.55729Q20.51875 120.93229 20.51875 121.46354Q20.51875 121.93229 20.846874 122.229164Q21.175 122.52604 22.55 122.83854Q23.940624 123.15104 24.45625 123.385414Q25.20625 123.74479 25.565624 124.27604Q25.925 124.791664 25.925 125.49479Q25.925 126.18229 25.534374 126.791664Q25.14375 127.385414 24.409374 127.729164Q23.675 128.05728 22.753124 128.05728Q21.58125 128.05728 20.784374 127.729164Q20.003124 127.385414 19.55 126.697914Q19.1125 126.010414 19.096874 125.15104ZM33.1125 119.322914L34.253124 119.322914L34.253124 124.291664Q34.253124 125.58854 33.95625 126.354164Q33.659374 127.104164 32.89375 127.58854Q32.128124 128.05728 30.89375 128.05728Q29.690624 128.05728 28.909374 127.65104Q28.14375 127.229164 27.815624 126.447914Q27.4875 125.65104 27.4875 124.291664L27.4875 119.322914L28.628124 119.322914L28.628124 124.27604Q28.628124 125.40104 28.83125 125.93229Q29.05 126.46354 29.55 126.760414Q30.065624 127.041664 30.8 127.041664Q32.05 127.041664 32.58125 126.479164Q33.1125 125.90104 33.1125 124.27604L33.1125 119.322914ZM36.4875 127.916664L36.4875 119.322914L40.3 119.322914Q41.45625 119.322914 42.05 119.55729Q42.64375 119.791664 43.003124 120.385414Q43.3625 120.96354 43.3625 121.666664Q43.3625 122.58854 42.76875 123.21354Q42.175 123.83854 40.940624 124.010414Q41.39375 124.229164 41.628124 124.43229Q42.128124 124.885414 42.565624 125.572914L44.065624 127.916664L42.628124 127.916664L41.503124 126.135414Q41.003124 125.354164 40.675 124.947914Q40.3625 124.541664 40.096874 124.385414Q39.846874 124.21354 39.58125 124.135414Q39.39375 124.104164 38.95625 124.104164L37.628124 124.104164L37.628124 127.916664L36.4875 127.916664ZM37.628124 123.11979L40.08125 123.11979Q40.846874 123.11979 41.284374 122.96354Q41.7375 122.791664 41.95625 122.447914Q42.190624 122.08854 42.190624 121.666664Q42.190624 121.05729 41.7375 120.666664Q41.3 120.27604 40.346874 120.27604L37.628124 120.27604L37.628124 123.11979ZM47.925 127.916664L44.596874 119.322914L45.83125 119.322914L48.065624 125.572914Q48.33125 126.322914 48.51875 126.979164Q48.721874 126.27604 48.9875 125.572914L51.3 119.322914L52.45625 119.322914L49.096874 127.916664L47.925 127.916664ZM52.503124 127.916664L52.503124 119.322914L58.70625 119.322914L58.70625 120.33854L53.64375 120.33854L53.64375 122.96354L58.39375 122.96354L58.39375 123.979164L53.64375 123.979164L53.64375 126.90104L58.909374 126.90104L58.909374 127.916664L52.503124 127.916664ZM60.675 127.916664L60.675 119.322914L61.8 119.322914L61.8 127.916664L60.675 127.916664ZM63.425 127.916664L63.425 119.322914L64.56563 119.322914L64.56563 126.90104L68.8 126.90104L68.8 127.916664L63.425 127.916664ZM70.425 127.916664L70.425 119.322914L71.56563 119.322914L71.56563 126.90104L75.8 126.90104L75.8 127.916664L70.425 127.916664ZM77.50313 127.916664L77.50313 119.322914L83.70625 119.322914L83.70625 120.33854L78.64375 120.33854L78.64375 122.96354L83.39375 122.96354L83.39375 123.979164L78.64375 123.979164L78.64375 126.90104L83.90938 126.90104L83.90938 127.916664L77.50313 127.916664ZM85.47188 127.916664L85.47188 119.322914L86.62813 119.322914L91.14375 126.072914L91.14375 119.322914L92.2375 119.322914L92.2375 127.916664L91.06563 127.916664L86.55 121.166664L86.55 127.916664L85.47188 127.916664ZM100.6125 124.90104L101.7375 125.197914Q101.37813 126.58854 100.45625 127.322914Q99.53438 128.05728 98.19063 128.05728Q96.8 128.05728 95.925 127.49479Q95.05 126.93229 94.59688 125.86979Q94.14375 124.791664 94.14375 123.55729Q94.14375 122.21354 94.65938 121.21354Q95.175 120.21354 96.1125 119.697914Q97.06563 119.18229 98.20625 119.18229Q99.4875 119.18229 100.3625 119.83854Q101.25313 120.49479 101.59688 121.68229L100.47188 121.947914Q100.175 121.010414 99.59688 120.58854Q99.03438 120.15104 98.175 120.15104Q97.19063 120.15104 96.51875 120.635414Q95.8625 121.104164 95.58125 121.90104Q95.31563 122.697914 95.31563 123.55729Q95.31563 124.65104 95.62813 125.46354Q95.95625 126.27604 96.62813 126.68229Q97.3 127.08854 98.09688 127.08854Q99.05 127.08854 99.70625 126.541664Q100.37813 125.99479 100.6125 124.90104ZM103.50313 127.916664L103.50313 119.322914L109.70625 119.322914L109.70625 120.33854L104.64375 120.33854L104.64375 122.96354L109.39375 122.96354L109.39375 123.979164L104.64375 123.979164L104.64375 126.90104L109.90938 126.90104L109.90938 127.916664L103.50313 127.916664Z" fill-rule="nonzero"/><path fill="#9e9e9e" d="M22.425 144.91667L22.425 142.85417L18.70625 142.85417L18.70625 141.88542L22.628124 136.32292L23.4875 136.32292L23.4875 141.88542L24.64375 141.88542L24.64375 142.85417L23.4875 142.85417L23.4875 144.91667L22.425 144.91667ZM22.425 141.88542L22.425 138.02605L19.7375 141.88542L22.425 141.88542ZM26.64375 144.91667L26.64375 143.71355L27.846874 143.71355L27.846874 144.91667L26.64375 144.91667ZM32.425 144.91667L32.425 142.85417L28.70625 142.85417L28.70625 141.88542L32.628124 136.32292L33.4875 136.32292L33.4875 141.88542L34.64375 141.88542L34.64375 142.85417L33.4875 142.85417L33.4875 144.91667L32.425 144.91667ZM32.425 141.88542L32.425 138.02605L29.7375 141.88542L32.425 141.88542ZM36.253124 138.38542Q36.253124 137.46355 36.70625 136.82292Q37.175 136.1823 38.05 136.1823Q38.8625 136.1823 39.39375 136.76042Q39.925 137.33855 39.925 138.44792Q39.925 139.54167 39.378124 140.13542Q38.846874 140.71355 38.065624 140.71355Q37.284374 140.71355 36.76875 140.13542Q36.253124 139.5573 36.253124 138.38542ZM38.08125 136.90105Q37.690624 136.90105 37.425 137.2448Q37.175 137.58855 37.175 138.4948Q37.175 139.32292 37.425 139.66667Q37.690624 139.9948 38.08125 139.9948Q38.4875 139.9948 38.7375 139.65105Q39.003124 139.3073 39.003124 138.41667Q39.003124 137.57292 38.7375 137.2448Q38.471874 136.90105 38.08125 136.90105ZM38.08125 145.22917L42.784374 136.1823L43.64375 136.1823L38.95625 145.22917L38.08125 145.22917ZM41.8 142.90105Q41.8 141.97917 42.253124 141.33855Q42.721874 140.69792 43.6125 140.69792Q44.425 140.69792 44.95625 141.27605Q45.4875 141.83855 45.4875 142.96355Q45.4875 144.0573 44.940624 144.65105Q44.409374 145.22917 43.6125 145.22917Q42.846874 145.22917 42.315624 144.65105Q41.8 144.07292 41.8 142.90105ZM43.64375 141.41667Q43.2375 141.41667 42.971874 141.76042Q42.721874 142.10417 42.721874 143.01042Q42.721874 143.82292 42.9875 144.16667Q43.253124 144.51042 43.64375 144.51042Q44.034374 144.51042 44.3 144.16667Q44.565624 143.82292 44.565624 142.91667Q44.565624 142.08855 44.3 141.76042Q44.034374 141.41667 43.64375 141.41667Z" fill-rule="nonzero"/><path stroke="#757575" stroke-width="1.0" stroke-linecap="butt" d="M18.55 132.41667L145.23334 132.41667L225.84439 83.37272" fill-rule="nonzero"/><path fill="#9e9e9e" d="M227.84439 83.37272C227.84439 82.26815 226.94896 81.37272 225.84439 81.37272C224.73982 81.37272 223.84439 82.26815 223.84439 83.37272C223.84439 84.477295 224.73982 85.37272 225.84439 85.37272C226.94896 85.37272 227.84439 84.477295 227.84439 83.37272" fill-rule="nonzero"/><path fill="#1a1a1a" d="M23.503124 173.94069L23.503124 172.94069L27.128124 172.92506L27.128124 176.11256Q26.3 176.78444 25.409374 177.12819Q24.51875 177.45631 23.58125 177.45631Q22.315624 177.45631 21.26875 176.92506Q20.2375 176.37819 19.70625 175.36256Q19.190624 174.33131 19.190624 173.06569Q19.190624 171.80006 19.70625 170.72194Q20.2375 169.62819 21.221874 169.11256Q22.20625 168.58131 23.4875 168.58131Q24.425 168.58131 25.175 168.87819Q25.925 169.17506 26.346874 169.72194Q26.784374 170.25319 27.003124 171.12819L25.9875 171.40944Q25.784374 170.75319 25.4875 170.37819Q25.20625 170.00319 24.675 169.78444Q24.14375 169.55006 23.503124 169.55006Q22.721874 169.55006 22.14375 169.78444Q21.58125 170.01881 21.221874 170.40944Q20.878124 170.80006 20.690624 171.26881Q20.3625 172.06569 20.3625 172.98756Q20.3625 174.14381 20.753124 174.92506Q21.159374 175.69069 21.909374 176.06569Q22.659374 176.44069 23.51875 176.44069Q24.253124 176.44069 24.95625 176.15944Q25.659374 175.86256 26.01875 175.55006L26.01875 173.94069L23.503124 173.94069ZM27.534374 177.31569L30.83125 168.72194L32.05 168.72194L35.565624 177.31569L34.284374 177.31569L33.26875 174.70631L29.690624 174.70631L28.7375 177.31569L27.534374 177.31569ZM30.01875 173.78444L32.925 173.78444L32.034374 171.40944Q31.6125 170.33131 31.425 169.62819Q31.253124 170.45631 30.95625 171.26881L30.01875 173.78444ZM37.659374 177.31569L37.659374 169.73756L34.83125 169.73756L34.83125 168.72194L41.64375 168.72194L41.64375 169.73756L38.8 169.73756L38.8 177.31569L37.659374 177.31569ZM42.51875 177.31569L42.51875 168.72194L43.64375 168.72194L43.64375 172.25319L48.1125 172.25319L48.1125 168.72194L49.253124 168.72194L49.253124 177.31569L48.1125 177.31569L48.1125 173.26881L43.64375 173.26881L43.64375 177.31569L42.51875 177.31569ZM51.503124 177.31569L51.503124 168.72194L57.70625 168.72194L57.70625 169.73756L52.64375 169.73756L52.64375 172.36256L57.39375 172.36256L57.39375 173.37819L52.64375 173.37819L52.64375 176.30006L57.909374 176.30006L57.909374 177.31569L51.503124 177.31569ZM59.4875 177.31569L59.4875 168.72194L63.3 168.72194Q64.45625 168.72194 65.05 168.95631Q65.64375 169.19069 66.00313 169.78444Q66.3625 170.36256 66.3625 171.06569Q66.3625 171.98756 65.76875 172.61256Q65.175 173.23756 63.940624 173.40944Q64.39375 173.62819 64.62813 173.83131Q65.12813 174.28444 65.56563 174.97194L67.06563 177.31569L65.62813 177.31569L64.50313 175.53444Q64.00313 174.75319 63.675 174.34694Q63.3625 173.94069 63.096874 173.78444Q62.846874 173.61256 62.58125 173.53444Q62.39375 173.50319 61.95625 173.50319L60.628124 173.50319L60.628124 177.31569L59.4875 177.31569ZM60.628124 172.51881L63.08125 172.51881Q63.846874 172.51881 64.28438 172.36256Q64.7375 172.19069 64.95625 171.84694Q65.19063 171.48756 65.19063 171.06569Q65.19063 170.45631 64.7375 170.06569Q64.3 169.67506 63.346874 169.67506L60.628124 169.67506L60.628124 172.51881ZM71.47188 177.31569L71.47188 168.72194L74.44063 168.72194Q75.44063 168.72194 75.97188 168.84694Q76.70625 169.01881 77.22188 169.45631Q77.90938 170.03444 78.2375 170.94069Q78.58125 171.83131 78.58125 172.97194Q78.58125 173.95631 78.34688 174.70631Q78.12813 175.45631 77.76875 175.95631Q77.40938 176.45631 76.97188 176.73756Q76.55 177.01881 75.95625 177.17506Q75.3625 177.31569 74.58125 177.31569L71.47188 177.31569ZM72.6125 176.30006L74.44063 176.30006Q75.3 176.30006 75.78438 176.14381Q76.26875 175.98756 76.55 175.69069Q76.95625 175.30006 77.175 174.61256Q77.40938 173.92506 77.40938 172.95631Q77.40938 171.61256 76.95625 170.89381Q76.51875 170.15944 75.89375 169.90944Q75.425 169.73756 74.425 169.73756L72.6125 169.73756L72.6125 176.30006ZM79.53438 177.31569L82.83125 168.72194L84.05 168.72194L87.56563 177.31569L86.28438 177.31569L85.26875 174.70631L81.69063 174.70631L80.7375 177.31569L79.53438 177.31569ZM82.01875 173.78444L84.925 173.78444L84.03438 171.40944Q83.6125 170.33131 83.425 169.62819Q83.25313 170.45631 82.95625 171.26881L82.01875 173.78444ZM89.65938 177.31569L89.65938 169.73756L86.83125 169.73756L86.83125 168.72194L93.64375 168.72194L93.64375 169.73756L90.8 169.73756L90.8 177.31569L89.65938 177.31569ZM93.53438 177.31569L96.83125 168.72194L98.05 168.72194L101.56563 177.31569L100.28438 177.31569L99.26875 174.70631L95.69063 174.70631L94.7375 177.31569L93.53438 177.31569ZM96.01875 173.78444L98.925 173.78444L98.03438 171.40944Q97.6125 170.33131 97.425 169.62819Q97.25313 170.45631 96.95625 171.26881L96.01875 173.78444Z" fill-rule="nonzero"/><path fill="#9e9e9e" d="M23.01875 194.31569L21.971874 194.31569L21.971874 187.59694Q21.58125 187.95631 20.95625 188.33131Q20.346874 188.69069 19.8625 188.86256L19.8625 187.84694Q20.7375 187.42506 21.39375 186.84694Q22.065624 186.25319 22.346874 185.69069L23.01875 185.69069L23.01875 194.31569ZM27.675 189.65944Q27.01875 189.40944 26.690624 188.97194Q26.378124 188.51881 26.378124 187.90944Q26.378124 186.97194 27.05 186.33131Q27.7375 185.69069 28.846874 185.69069Q29.971874 185.69069 30.659374 186.34694Q31.346874 187.00319 31.346874 187.94069Q31.346874 188.53444 31.034374 188.97194Q30.721874 189.40944 30.08125 189.65944Q30.878124 189.90944 31.284374 190.48756Q31.690624 191.06569 31.690624 191.86256Q31.690624 192.95631 30.909374 193.70631Q30.14375 194.45631 28.8625 194.45631Q27.596874 194.45631 26.815624 193.70631Q26.034374 192.95631 26.034374 191.83131Q26.034374 190.98756 26.45625 190.42506Q26.89375 189.86256 27.675 189.65944ZM27.45625 187.86256Q27.45625 188.47194 27.846874 188.86256Q28.253124 189.25319 28.878124 189.25319Q29.4875 189.25319 29.878124 188.87819Q30.26875 188.48756 30.26875 187.92506Q30.26875 187.34694 29.8625 186.95631Q29.45625 186.55006 28.8625 186.55006Q28.253124 186.55006 27.846874 186.94069Q27.45625 187.33131 27.45625 187.86256ZM27.128124 191.83131Q27.128124 192.28444 27.33125 192.70631Q27.55 193.12819 27.971874 193.36256Q28.39375 193.59694 28.878124 193.59694Q29.628124 193.59694 30.1125 193.11256Q30.6125 192.62819 30.6125 191.87819Q30.6125 191.11256 30.1125 190.61256Q29.6125 190.11256 28.846874 190.11256Q28.096874 190.11256 27.6125 190.61256Q27.128124 191.09694 27.128124 191.83131ZM33.64375 194.31569L33.64375 193.11256L34.846874 193.11256L34.846874 194.31569L33.64375 194.31569ZM36.1125 186.84694L36.1125 185.83131L41.675 185.83131L41.675 186.65944Q40.8625 187.53444 40.05 188.98756Q39.253124 190.42506 38.815624 191.95631Q38.4875 193.03444 38.409374 194.31569L37.315624 194.31569Q37.33125 193.30006 37.70625 191.86256Q38.096874 190.42506 38.8 189.09694Q39.51875 187.76881 40.33125 186.84694L36.1125 186.84694ZM43.253124 187.78444Q43.253124 186.86256 43.70625 186.22194Q44.175 185.58131 45.05 185.58131Q45.8625 185.58131 46.39375 186.15944Q46.925 186.73756 46.925 187.84694Q46.925 188.94069 46.378124 189.53444Q45.846874 190.11256 45.065624 190.11256Q44.284374 190.11256 43.76875 189.53444Q43.253124 188.95631 43.253124 187.78444ZM45.08125 186.30006Q44.690624 186.30006 44.425 186.64381Q44.175 186.98756 44.175 187.89381Q44.175 188.72194 44.425 189.06569Q44.690624 189.39381 45.08125 189.39381Q45.4875 189.39381 45.7375 189.05006Q46.003124 188.70631 46.003124 187.81569Q46.003124 186.97194 45.7375 186.64381Q45.471874 186.30006 45.08125 186.30006ZM45.08125 194.62819L49.784374 185.58131L50.64375 185.58131L45.95625 194.62819L45.08125 194.62819ZM48.8 192.30006Q48.8 191.37819 49.253124 190.73756Q49.721874 190.09694 50.6125 190.09694Q51.425 190.09694 51.95625 190.67506Q52.4875 191.23756 52.4875 192.36256Q52.4875 193.45631 51.940624 194.05006Q51.409374 194.62819 50.6125 194.62819Q49.846874 194.62819 49.315624 194.05006Q48.8 193.47194 48.8 192.30006ZM50.64375 190.81569Q50.2375 190.81569 49.971874 191.15944Q49.721874 191.50319 49.721874 192.40944Q49.721874 193.22194 49.9875 193.56569Q50.253124 193.90944 50.64375 193.90944Q51.034374 193.90944 51.3 193.56569Q51.565624 193.22194 51.565624 192.31569Q51.565624 191.48756 51.3 191.15944Q51.034374 190.81569 50.64375 190.81569Z" fill-rule="nonzero"/><path stroke="#757575" stroke-width="1.0" stroke-linecap="butt" d="M18.55 181.81569L145.23334 181.81569L160.3737 181.81569" fill-rule="nonzero"/><path fill="#9e9e9e" d="M162.3737 181.81569C162.3737 180.71112 161.47827 179.81569 160.3737 179.81569C159.26913 179.81569 158.3737 180.71112 158.3737 181.81569C158.3737 182.92026 159.26913 183.81569 160.3737 183.81569C161.47827 183.81569 162.3737 182.92026 162.3737 181.81569" fill-rule="nonzero"/><path fill="#1a1a1a" d="M19.471874 291.06146L19.471874 282.4677L22.440624 282.4677Q23.440624 282.4677 23.971874 282.5927Q24.70625 282.7646 25.221874 283.2021Q25.909374 283.7802 26.2375 284.68646Q26.58125 285.5771 26.58125 286.7177Q26.58125 287.7021 26.346874 288.4521Q26.128124 289.2021 25.76875 289.7021Q25.409374 290.2021 24.971874 290.48334Q24.55 290.7646 23.95625 290.92084Q23.3625 291.06146 22.58125 291.06146L19.471874 291.06146ZM20.6125 290.04584L22.440624 290.04584Q23.3 290.04584 23.784374 289.8896Q24.26875 289.73334 24.55 289.43646Q24.95625 289.04584 25.175 288.35834Q25.409374 287.67084 25.409374 286.7021Q25.409374 285.35834 24.95625 284.6396Q24.51875 283.9052 23.89375 283.6552Q23.425 283.48334 22.425 283.48334L20.6125 283.48334L20.6125 290.04584ZM28.675 291.06146L28.675 282.4677L29.8 282.4677L29.8 291.06146L28.675 291.06146ZM31.096874 288.29584L32.159374 288.2021Q32.2375 288.85834 32.51875 289.2646Q32.8 289.67084 33.378124 289.93646Q33.971874 290.18646 34.70625 290.18646Q35.346874 290.18646 35.846874 289.99896Q36.346874 289.79584 36.58125 289.4677Q36.83125 289.12396 36.83125 288.73334Q36.83125 288.3271 36.596874 288.0302Q36.3625 287.7177 35.83125 287.5146Q35.471874 287.37396 34.284374 287.0927Q33.1125 286.81146 32.64375 286.56146Q32.01875 286.23334 31.721874 285.7646Q31.425 285.2802 31.425 284.68646Q31.425 284.04584 31.784374 283.48334Q32.159374 282.9052 32.8625 282.62396Q33.58125 282.3271 34.440624 282.3271Q35.39375 282.3271 36.128124 282.6396Q36.8625 282.93646 37.253124 283.54584Q37.64375 284.1396 37.675 284.8896L36.58125 284.9677Q36.4875 284.1552 35.971874 283.74896Q35.471874 283.3271 34.4875 283.3271Q33.45625 283.3271 32.9875 283.7021Q32.51875 284.0771 32.51875 284.60834Q32.51875 285.0771 32.846874 285.37396Q33.175 285.67084 34.55 285.98334Q35.940624 286.29584 36.45625 286.5302Q37.20625 286.8896 37.565624 287.42084Q37.925 287.93646 37.925 288.6396Q37.925 289.3271 37.534374 289.93646Q37.14375 290.5302 36.409374 290.87396Q35.675 291.2021 34.753124 291.2021Q33.58125 291.2021 32.784374 290.87396Q32.003124 290.5302 31.55 289.8427Q31.1125 289.1552 31.096874 288.29584ZM39.4875 291.06146L39.4875 282.4677L43.3 282.4677Q44.45625 282.4677 45.05 282.7021Q45.64375 282.93646 46.003124 283.5302Q46.3625 284.10834 46.3625 284.81146Q46.3625 285.73334 45.76875 286.35834Q45.175 286.98334 43.940624 287.1552Q44.39375 287.37396 44.628124 287.5771Q45.128124 288.0302 45.565624 288.7177L47.065624 291.06146L45.628124 291.06146L44.503124 289.2802Q44.003124 288.49896 43.675 288.0927Q43.3625 287.68646 43.096874 287.5302Q42.846874 287.35834 42.58125 287.2802Q42.39375 287.24896 41.95625 287.24896L40.628124 287.24896L40.628124 291.06146L39.4875 291.06146ZM40.628124 286.2646L43.08125 286.2646Q43.846874 286.2646 44.284374 286.10834Q44.7375 285.93646 44.95625 285.5927Q45.190624 285.23334 45.190624 284.81146Q45.190624 284.2021 44.7375 283.81146Q44.3 283.42084 43.346874 283.42084L40.628124 283.42084L40.628124 286.2646ZM54.1125 282.4677L55.253124 282.4677L55.253124 287.43646Q55.253124 288.73334 54.95625 289.49896Q54.659374 290.24896 53.89375 290.73334Q53.128124 291.2021 51.89375 291.2021Q50.690624 291.2021 49.909374 290.79584Q49.14375 290.37396 48.815624 289.5927Q48.4875 288.79584 48.4875 287.43646L48.4875 282.4677L49.628124 282.4677L49.628124 287.42084Q49.628124 288.54584 49.83125 289.0771Q50.05 289.60834 50.55 289.9052Q51.065624 290.18646 51.8 290.18646Q53.05 290.18646 53.58125 289.62396Q54.1125 289.04584 54.1125 287.42084L54.1125 282.4677ZM57.471874 291.06146L57.471874 282.4677L60.721874 282.4677Q61.565624 282.4677 62.01875 282.54584Q62.659374 282.6552 63.08125 282.9521Q63.51875 283.24896 63.76875 283.7802Q64.03438 284.31146 64.03438 284.9521Q64.03438 286.04584 63.33125 286.81146Q62.64375 287.56146 60.815624 287.56146L58.6125 287.56146L58.6125 291.06146L57.471874 291.06146ZM58.6125 286.56146L60.83125 286.56146Q61.940624 286.56146 62.39375 286.1552Q62.8625 285.73334 62.8625 284.98334Q62.8625 284.4521 62.58125 284.0771Q62.315624 283.68646 61.878124 283.56146Q61.58125 283.48334 60.815624 283.48334L58.6125 283.48334L58.6125 286.56146ZM67.65938 291.06146L67.65938 283.48334L64.83125 283.48334L64.83125 282.4677L71.64375 282.4677L71.64375 283.48334L68.8 283.48334L68.8 291.06146L67.65938 291.06146ZM72.675 291.06146L72.675 282.4677L73.8 282.4677L73.8 291.06146L72.675 291.06146ZM75.12813 286.87396Q75.12813 284.73334 76.26875 283.5302Q77.425 282.31146 79.2375 282.31146Q80.44063 282.31146 81.39375 282.8896Q82.34688 283.4521 82.84688 284.4677Q83.34688 285.48334 83.34688 286.7802Q83.34688 288.0771 82.81563 289.10834Q82.28438 290.1396 81.31563 290.67084Q80.3625 291.2021 79.2375 291.2021Q78.01875 291.2021 77.06563 290.62396Q76.1125 290.0302 75.6125 289.0302Q75.12813 288.0146 75.12813 286.87396ZM76.3 286.8896Q76.3 288.4521 77.12813 289.3427Q77.97188 290.23334 79.2375 290.23334Q80.51875 290.23334 81.34688 289.3427Q82.175 288.43646 82.175 286.7646Q82.175 285.7177 81.81563 284.93646Q81.47188 284.1552 80.78438 283.73334Q80.09688 283.29584 79.25313 283.29584Q78.05 283.29584 77.175 284.12396Q76.3 284.9521 76.3 286.8896ZM84.47188 291.06146L84.47188 282.4677L85.62813 282.4677L90.14375 289.2177L90.14375 282.4677L91.2375 282.4677L91.2375 291.06146L90.06563 291.06146L85.55 284.31146L85.55 291.06146L84.47188 291.06146Z" fill-rule="nonzero"/><path fill="#9e9e9e" d="M20.675 303.4052Q20.01875 303.1552 19.690624 302.7177Q19.378124 302.2646 19.378124 301.6552Q19.378124 300.7177 20.05 300.0771Q20.7375 299.43646 21.846874 299.43646Q22.971874 299.43646 23.659374 300.0927Q24.346874 300.74896 24.346874 301.68646Q24.346874 302.2802 24.034374 302.7177Q23.721874 303.1552 23.08125 303.4052Q23.878124 303.6552 24.284374 304.23334Q24.690624 304.81146 24.690624 305.60834Q24.690624 306.7021 23.909374 307.4521Q23.14375 308.2021 21.8625 308.2021Q20.596874 308.2021 19.815624 307.4521Q19.034374 306.7021 19.034374 305.5771Q19.034374 304.73334 19.45625 304.17084Q19.89375 303.60834 20.675 303.4052ZM20.45625 301.60834Q20.45625 302.2177 20.846874 302.60834Q21.253124 302.99896 21.878124 302.99896Q22.4875 302.99896 22.878124 302.62396Q23.26875 302.23334 23.26875 301.67084Q23.26875 301.0927 22.8625 300.7021Q22.45625 300.29584 21.8625 300.29584Q21.253124 300.29584 20.846874 300.68646Q20.45625 301.0771 20.45625 301.60834ZM20.128124 305.5771Q20.128124 306.0302 20.33125 306.4521Q20.55 306.87396 20.971874 307.10834Q21.39375 307.3427 21.878124 307.3427Q22.628124 307.3427 23.1125 306.85834Q23.6125 306.37396 23.6125 305.62396Q23.6125 304.85834 23.1125 304.35834Q22.6125 303.85834 21.846874 303.85834Q21.096874 303.85834 20.6125 304.35834Q20.128124 304.8427 20.128124 305.5771ZM26.64375 308.06146L26.64375 306.85834L27.846874 306.85834L27.846874 308.06146L26.64375 308.06146ZM30.675 303.4052Q30.01875 303.1552 29.690624 302.7177Q29.378124 302.2646 29.378124 301.6552Q29.378124 300.7177 30.05 300.0771Q30.7375 299.43646 31.846874 299.43646Q32.971874 299.43646 33.659374 300.0927Q34.346874 300.74896 34.346874 301.68646Q34.346874 302.2802 34.034374 302.7177Q33.721874 303.1552 33.08125 303.4052Q33.878124 303.6552 34.284374 304.23334Q34.690624 304.81146 34.690624 305.60834Q34.690624 306.7021 33.909374 307.4521Q33.14375 308.2021 31.8625 308.2021Q30.596874 308.2021 29.815624 307.4521Q29.034374 306.7021 29.034374 305.5771Q29.034374 304.73334 29.45625 304.17084Q29.89375 303.60834 30.675 303.4052ZM30.45625 301.60834Q30.45625 302.2177 30.846874 302.60834Q31.253124 302.99896 31.878124 302.99896Q32.4875 302.99896 32.878124 302.62396Q33.26875 302.23334 33.26875 301.67084Q33.26875 301.0927 32.8625 300.7021Q32.45625 300.29584 31.8625 300.29584Q31.253124 300.29584 30.846874 300.68646Q30.45625 301.0771 30.45625 301.60834ZM30.128124 305.5771Q30.128124 306.0302 30.33125 306.4521Q30.55 306.87396 30.971874 307.10834Q31.39375 307.3427 31.878124 307.3427Q32.628124 307.3427 33.1125 306.85834Q33.6125 306.37396 33.6125 305.62396Q33.6125 304.85834 33.1125 304.35834Q32.6125 303.85834 31.846874 303.85834Q31.096874 303.85834 30.6125 304.35834Q30.128124 304.8427 30.128124 305.5771ZM36.253124 301.5302Q36.253124 300.60834 36.70625 299.9677Q37.175 299.3271 38.05 299.3271Q38.8625 299.3271 39.39375 299.9052Q39.925 300.48334 39.925 301.5927Q39.925 302.68646 39.378124 303.2802Q38.846874 303.85834 38.065624 303.85834Q37.284374 303.85834 36.76875 303.2802Q36.253124 302.7021 36.253124 301.5302ZM38.08125 300.04584Q37.690624 300.04584 37.425 300.3896Q37.175 300.73334 37.175 301.6396Q37.175 302.4677 37.425 302.81146Q37.690624 303.1396 38.08125 303.1396Q38.4875 303.1396 38.7375 302.79584Q39.003124 302.4521 39.003124 301.56146Q39.003124 300.7177 38.7375 300.3896Q38.471874 300.04584 38.08125 300.04584ZM38.08125 308.37396L42.784374 299.3271L43.64375 299.3271L38.95625 308.37396L38.08125 308.37396ZM41.8 306.04584Q41.8 305.12396 42.253124 304.48334Q42.721874 303.8427 43.6125 303.8427Q44.425 303.8427 44.95625 304.42084Q45.4875 304.98334 45.4875 306.10834Q45.4875 307.2021 44.940624 307.79584Q44.409374 308.37396 43.6125 308.37396Q42.846874 308.37396 42.315624 307.79584Q41.8 307.2177 41.8 306.04584ZM43.64375 304.56146Q43.2375 304.56146 42.971874 304.9052Q42.721874 305.24896 42.721874 306.1552Q42.721874 306.9677 42.9875 307.31146Q43.253124 307.6552 43.64375 307.6552Q44.034374 307.6552 44.3 307.31146Q44.565624 306.9677 44.565624 306.06146Q44.565624 305.23334 44.3 304.9052Q44.034374 304.56146 43.64375 304.56146Z" fill-rule="nonzero"/><path stroke="#757575" stroke-width="1.0" stroke-linecap="butt" d="M18.55 295.56146L145.23334 295.56146L192.61235 295.56146" fill-rule="nonzero"/><path fill="#9e9e9e" d="M194.61235 295.56146C194.61235 294.45688 193.71692 293.56146 192.61235 293.56146C191.50778 293.56146 190.61235 294.45688 190.61235 295.56146C190.61235 296.66605 191.50778 297.56146 192.61235 297.56146C193.71692 297.56146 194.61235 296.66605 194.61235 295.56146" fill-rule="nonzero"/><path fill="#1a1a1a" d="M19.471874 326.51575L19.471874 317.922L22.440624 317.922Q23.440624 317.922 23.971874 318.047Q24.70625 318.21887 25.221874 318.65637Q25.909374 319.2345 26.2375 320.14075Q26.58125 321.03137 26.58125 322.172Q26.58125 323.15637 26.346874 323.90637Q26.128124 324.65637 25.76875 325.15637Q25.409374 325.65637 24.971874 325.93762Q24.55 326.21887 23.95625 326.37512Q23.3625 326.51575 22.58125 326.51575L19.471874 326.51575ZM20.6125 325.50012L22.440624 325.50012Q23.3 325.50012 23.784374 325.34387Q24.26875 325.18762 24.55 324.89075Q24.95625 324.50012 25.175 323.81262Q25.409374 323.12512 25.409374 322.15637Q25.409374 320.81262 24.95625 320.09387Q24.51875 319.3595 23.89375 319.1095Q23.425 318.93762 22.425 318.93762L20.6125 318.93762L20.6125 325.50012ZM32.596874 324.51575L33.690624 324.64075Q33.440624 325.59387 32.7375 326.12512Q32.034374 326.65637 30.95625 326.65637Q29.596874 326.65637 28.784374 325.81262Q27.9875 324.96887 27.9875 323.45325Q27.9875 321.89075 28.8 321.03137Q29.6125 320.15637 30.89375 320.15637Q32.14375 320.15637 32.925 321.00012Q33.721874 321.84387 33.721874 323.39075Q33.721874 323.4845 33.721874 323.672L29.08125 323.672Q29.14375 324.70325 29.659374 325.25012Q30.175 325.78137 30.95625 325.78137Q31.534374 325.78137 31.940624 325.4845Q32.3625 325.172 32.596874 324.51575ZM29.14375 322.81262L32.6125 322.81262Q32.55 322.01575 32.221874 321.62512Q31.70625 321.01575 30.909374 321.01575Q30.175 321.01575 29.675 321.50012Q29.190624 321.9845 29.14375 322.81262ZM35.596874 326.51575L35.596874 321.1095L34.659374 321.1095L34.659374 320.297L35.596874 320.297L35.596874 319.62512Q35.596874 319.00012 35.70625 318.70325Q35.8625 318.28137 36.2375 318.03137Q36.628124 317.78137 37.315624 317.78137Q37.76875 317.78137 38.3 317.89075L38.14375 318.797Q37.815624 318.75012 37.51875 318.75012Q37.034374 318.75012 36.83125 318.95325Q36.64375 319.15637 36.64375 319.71887L36.64375 320.297L37.8625 320.297L37.8625 321.1095L36.64375 321.1095L36.64375 326.51575L35.596874 326.51575ZM42.409374 325.75012Q41.815624 326.25012 41.26875 326.45325Q40.7375 326.65637 40.1125 326.65637Q39.08125 326.65637 38.534374 326.15637Q37.9875 325.65637 37.9875 324.87512Q37.9875 324.422 38.190624 324.047Q38.39375 323.65637 38.7375 323.43762Q39.08125 323.20325 39.503124 323.09387Q39.8 323.00012 40.440624 322.922Q41.70625 322.78137 42.315624 322.56262Q42.315624 322.34387 42.315624 322.297Q42.315624 321.64075 42.01875 321.37512Q41.6125 321.03137 40.815624 321.03137Q40.08125 321.03137 39.721874 321.297Q39.3625 321.547 39.190624 322.20325L38.159374 322.06262Q38.3 321.40637 38.628124 321.00012Q38.95625 320.59387 39.565624 320.37512Q40.175 320.15637 40.971874 320.15637Q41.76875 320.15637 42.26875 320.34387Q42.76875 320.53137 43.003124 320.81262Q43.2375 321.09387 43.33125 321.53137Q43.378124 321.797 43.378124 322.50012L43.378124 323.90637Q43.378124 325.37512 43.440624 325.76575Q43.51875 326.15637 43.721874 326.51575L42.6125 326.51575Q42.45625 326.18762 42.409374 325.75012ZM42.315624 323.39075Q41.7375 323.62512 40.596874 323.797Q39.940624 323.89075 39.675 324.01575Q39.409374 324.12512 39.253124 324.34387Q39.1125 324.56262 39.1125 324.84387Q39.1125 325.26575 39.425 325.547Q39.753124 325.82825 40.3625 325.82825Q40.971874 325.82825 41.440624 325.56262Q41.925 325.297 42.14375 324.82825Q42.315624 324.46887 42.315624 323.78137L42.315624 323.39075ZM45.346874 326.51575L45.346874 320.297L46.284374 320.297L46.284374 321.172Q46.58125 320.70325 47.065624 320.43762Q47.55 320.15637 48.175 320.15637Q48.8625 320.15637 49.3 320.43762Q49.753124 320.71887 49.925 321.2345Q50.675 320.15637 51.846874 320.15637Q52.784374 320.15637 53.26875 320.672Q53.76875 321.172 53.76875 322.25012L53.76875 326.51575L52.721874 326.51575L52.721874 322.59387Q52.721874 321.96887 52.6125 321.68762Q52.51875 321.40637 52.253124 321.2345Q51.9875 321.06262 51.6125 321.06262Q50.95625 321.06262 50.51875 321.50012Q50.096874 321.93762 50.096874 322.90637L50.096874 326.51575L49.034374 326.51575L49.034374 322.46887Q49.034374 321.76575 48.76875 321.422Q48.51875 321.06262 47.940624 321.06262Q47.4875 321.06262 47.1125 321.297Q46.7375 321.53137 46.565624 321.9845Q46.39375 322.43762 46.39375 323.28137L46.39375 326.51575L45.346874 326.51575ZM60.409374 325.75012Q59.815624 326.25012 59.26875 326.45325Q58.7375 326.65637 58.1125 326.65637Q57.08125 326.65637 56.534374 326.15637Q55.9875 325.65637 55.9875 324.87512Q55.9875 324.422 56.190624 324.047Q56.39375 323.65637 56.7375 323.43762Q57.08125 323.20325 57.503124 323.09387Q57.8 323.00012 58.440624 322.922Q59.70625 322.78137 60.315624 322.56262Q60.315624 322.34387 60.315624 322.297Q60.315624 321.64075 60.01875 321.37512Q59.6125 321.03137 58.815624 321.03137Q58.08125 321.03137 57.721874 321.297Q57.3625 321.547 57.190624 322.20325L56.159374 322.06262Q56.3 321.40637 56.628124 321.00012Q56.95625 320.59387 57.565624 320.37512Q58.175 320.15637 58.971874 320.15637Q59.76875 320.15637 60.26875 320.34387Q60.76875 320.53137 61.003124 320.81262Q61.2375 321.09387 61.33125 321.53137Q61.378124 321.797 61.378124 322.50012L61.378124 323.90637Q61.378124 325.37512 61.440624 325.76575Q61.51875 326.15637 61.721874 326.51575L60.6125 326.51575Q60.45625 326.18762 60.409374 325.75012ZM60.315624 323.39075Q59.7375 323.62512 58.596874 323.797Q57.940624 323.89075 57.675 324.01575Q57.409374 324.12512 57.253124 324.34387Q57.1125 324.56262 57.1125 324.84387Q57.1125 325.26575 57.425 325.547Q57.753124 325.82825 58.3625 325.82825Q58.971874 325.82825 59.440624 325.56262Q59.925 325.297 60.14375 324.82825Q60.315624 324.46887 60.315624 323.78137L60.315624 323.39075ZM65.64375 325.57825L65.8 326.50012Q65.34688 326.59387 65.00313 326.59387Q64.425 326.59387 64.1125 326.422Q63.8 326.2345 63.659374 325.93762Q63.534374 325.64075 63.534374 324.68762L63.534374 321.1095L62.76875 321.1095L62.76875 320.297L63.534374 320.297L63.534374 318.75012L64.58125 318.12512L64.58125 320.297L65.64375 320.297L65.64375 321.1095L64.58125 321.1095L64.58125 324.75012Q64.58125 325.20325 64.62813 325.32825Q64.69063 325.45325 64.81563 325.53137Q64.94063 325.6095 65.175 325.6095Q65.3625 325.6095 65.64375 325.57825ZM66.34688 319.14075L66.34688 317.922L67.40938 317.922L67.40938 319.14075L66.34688 319.14075ZM66.34688 326.51575L66.34688 320.297L67.40938 320.297L67.40938 326.51575L66.34688 326.51575ZM68.95625 323.40637Q68.95625 321.672 69.90938 320.84387Q70.70625 320.15637 71.8625 320.15637Q73.14375 320.15637 73.95625 321.00012Q74.78438 321.82825 74.78438 323.31262Q74.78438 324.51575 74.425 325.20325Q74.06563 325.89075 73.3625 326.28137Q72.675 326.65637 71.8625 326.65637Q70.56563 326.65637 69.75313 325.82825Q68.95625 324.9845 68.95625 323.40637ZM70.03438 323.40637Q70.03438 324.59387 70.55 325.18762Q71.08125 325.78137 71.8625 325.78137Q72.65938 325.78137 73.175 325.18762Q73.69063 324.59387 73.69063 323.37512Q73.69063 322.21887 73.15938 321.62512Q72.64375 321.03137 71.8625 321.03137Q71.08125 321.03137 70.55 321.62512Q70.03438 322.20325 70.03438 323.40637ZM76.34688 326.51575L76.34688 320.297L77.28438 320.297L77.28438 321.172Q77.97188 320.15637 79.26875 320.15637Q79.83125 320.15637 80.3 320.3595Q80.78438 320.56262 81.01875 320.89075Q81.25313 321.21887 81.34688 321.65637Q81.39375 321.95325 81.39375 322.68762L81.39375 326.51575L80.34688 326.51575L80.34688 322.7345Q80.34688 322.07825 80.22188 321.76575Q80.09688 321.45325 79.78438 321.26575Q79.47188 321.06262 79.05 321.06262Q78.37813 321.06262 77.87813 321.50012Q77.39375 321.922 77.39375 323.1095L77.39375 326.51575L76.34688 326.51575Z" fill-rule="nonzero"/><path fill="#9e9e9e" d="M22.425 343.51575L22.425 341.45325L18.70625 341.45325L18.70625 340.4845L22.628124 334.922L23.4875 334.922L23.4875 340.4845L24.64375 340.4845L24.64375 341.45325L23.4875 341.45325L23.4875 343.51575L22.425 343.51575ZM22.425 340.4845L22.425 336.62512L19.7375 340.4845L22.425 340.4845ZM26.64375 343.51575L26.64375 342.31262L27.846874 342.31262L27.846874 343.51575L26.64375 343.51575ZM32.425 343.51575L32.425 341.45325L28.70625 341.45325L28.70625 340.4845L32.628124 334.922L33.4875 334.922L33.4875 340.4845L34.64375 340.4845L34.64375 341.45325L33.4875 341.45325L33.4875 343.51575L32.425 343.51575ZM32.425 340.4845L32.425 336.62512L29.7375 340.4845L32.425 340.4845ZM36.253124 336.9845Q36.253124 336.06262 36.70625 335.422Q37.175 334.78137 38.05 334.78137Q38.8625 334.78137 39.39375 335.3595Q39.925 335.93762 39.925 337.047Q39.925 338.14075 39.378124 338.7345Q38.846874 339.31262 38.065624 339.31262Q37.284374 339.31262 36.76875 338.7345Q36.253124 338.15637 36.253124 336.9845ZM38.08125 335.50012Q37.690624 335.50012 37.425 335.84387Q37.175 336.18762 37.175 337.09387Q37.175 337.922 37.425 338.26575Q37.690624 338.59387 38.08125 338.59387Q38.4875 338.59387 38.7375 338.25012Q39.003124 337.90637 39.003124 337.01575Q39.003124 336.172 38.7375 335.84387Q38.471874 335.50012 38.08125 335.50012ZM38.08125 343.82825L42.784374 334.78137L43.64375 334.78137L38.95625 343.82825L38.08125 343.82825ZM41.8 341.50012Q41.8 340.57825 42.253124 339.93762Q42.721874 339.297 43.6125 339.297Q44.425 339.297 44.95625 339.87512Q45.4875 340.43762 45.4875 341.56262Q45.4875 342.65637 44.940624 343.25012Q44.409374 343.82825 43.6125 343.82825Q42.846874 343.82825 42.315624 343.25012Q41.8 342.672 41.8 341.50012ZM43.64375 340.01575Q43.2375 340.01575 42.971874 340.3595Q42.721874 340.70325 42.721874 341.6095Q42.721874 342.422 42.9875 342.76575Q43.253124 343.1095 43.64375 343.1095Q44.034374 343.1095 44.3 342.76575Q44.565624 342.422 44.565624 341.51575Q44.565624 340.68762 44.3 340.3595Q44.034374 340.01575 43.64375 340.01575Z" fill-rule="nonzero"/><path stroke="#757575" stroke-width="1.0" stroke-linecap="butt" d="M18.55 331.01575L145.23334 331.01575L238.67993 331.01575" fill-rule="nonzero"/><path fill="#9e9e9e" d="M240.67993 331.01575C240.67993 329.9112 239.7845 329.01575 238.67993 329.01575C237.57536 329.01575 236.67993 329.9112 236.67993 331.01575C236.67993 332.12033 237.57536 333.01575 238.67993 333.01575C239.7845 333.01575 240.67993 332.12033 240.67993 331.01575" fill-rule="nonzero"/><path fill="#1a1a1a" d="M540.34064 216.21858L540.34064 207.62483L542.0594 207.62483L544.09064 213.70296Q544.3719 214.56233 544.4969 214.9842Q544.6375 214.51546 544.95 213.6092L547.0125 207.62483L548.54376 207.62483L548.54376 216.21858L547.45 216.21858L547.45 209.03108L544.95 216.21858L543.91876 216.21858L541.4344 208.90608L541.4344 216.21858L540.34064 216.21858ZM549.02814 212.03108Q549.02814 209.89046 550.16876 208.68733Q551.325 207.46858 553.1375 207.46858Q554.34064 207.46858 555.29376 208.0467Q556.2469 208.6092 556.7469 209.62483Q557.2469 210.64046 557.2469 211.93733Q557.2469 213.2342 556.71564 214.26546Q556.1844 215.2967 555.21564 215.82796Q554.2625 216.3592 553.1375 216.3592Q551.91876 216.3592 550.96564 215.78108Q550.0125 215.18733 549.5125 214.18733Q549.02814 213.1717 549.02814 212.03108ZM550.2 212.0467Q550.2 213.6092 551.02814 214.49983Q551.8719 215.39046 553.1375 215.39046Q554.41876 215.39046 555.2469 214.49983Q556.075 213.59358 556.075 211.9217Q556.075 210.87483 555.71564 210.09358Q555.3719 209.31233 554.6844 208.89046Q553.9969 208.45296 553.15314 208.45296Q551.95 208.45296 551.075 209.28108Q550.2 210.1092 550.2 212.0467ZM558.3719 216.21858L558.3719 207.62483L559.52814 207.62483L564.04376 214.37483L564.04376 207.62483L565.1375 207.62483L565.1375 216.21858L563.96564 216.21858L559.45 209.46858L559.45 216.21858L558.3719 216.21858ZM567.40314 216.21858L567.40314 207.62483L573.60626 207.62483L573.60626 208.64046L568.54376 208.64046L568.54376 211.26546L573.29376 211.26546L573.29376 212.28108L568.54376 212.28108L568.54376 215.20296L573.8094 215.20296L573.8094 216.21858L567.40314 216.21858ZM577.79376 216.21858L577.79376 212.57796L574.48126 207.62483L575.8719 207.62483L577.5594 210.21858Q578.02814 210.93733 578.4344 211.6717Q578.825 210.99983 579.3719 210.15608L581.04376 207.62483L582.35626 207.62483L578.9344 212.57796L578.9344 216.21858L577.79376 216.21858Z" fill-rule="nonzero"/><path fill="#9e9e9e" d="M546.95 230.96858L548.0594 230.87483Q548.1844 231.68733 548.6219 232.09358Q549.075 232.49983 549.71564 232.49983Q550.46564 232.49983 550.9969 231.9217Q551.52814 231.34358 551.52814 230.40608Q551.52814 229.49983 551.0125 228.9842Q550.5125 228.45296 549.6844 228.45296Q549.1844 228.45296 548.7625 228.68733Q548.35626 228.9217 548.1219 229.28108L547.1375 229.15608L547.96564 224.74983L552.2469 224.74983L552.2469 225.74983L548.8094 225.74983L548.35626 228.06233Q549.1219 227.51546 549.96564 227.51546Q551.09064 227.51546 551.85626 228.2967Q552.6375 229.07796 552.6375 230.31233Q552.6375 231.46858 551.96564 232.32796Q551.1375 233.3592 549.71564 233.3592Q548.54376 233.3592 547.79376 232.70296Q547.0594 232.0467 546.95 230.96858ZM553.95 230.95296L555.0125 230.81233Q555.1844 231.70296 555.6219 232.1092Q556.0594 232.49983 556.6844 232.49983Q557.4344 232.49983 557.95 231.9842Q558.46564 231.46858 558.46564 230.70296Q558.46564 229.9842 557.98126 229.51546Q557.5125 229.03108 556.77814 229.03108Q556.48126 229.03108 556.02814 229.15608L556.15314 228.21858Q556.2625 228.2342 556.325 228.2342Q556.9969 228.2342 557.52814 227.89046Q558.075 227.53108 558.075 226.7967Q558.075 226.21858 557.6844 225.84358Q557.29376 225.45296 556.66876 225.45296Q556.0594 225.45296 555.6375 225.84358Q555.23126 226.2342 555.1219 226.99983L554.0594 226.81233Q554.2469 225.76546 554.9344 225.18733Q555.6219 224.59358 556.6375 224.59358Q557.34064 224.59358 557.9344 224.90608Q558.52814 225.20296 558.84064 225.71858Q559.15314 226.2342 559.15314 226.82796Q559.15314 227.37483 558.85626 227.84358Q558.5594 228.2967 557.98126 228.56233Q558.73126 228.7342 559.15314 229.2967Q559.575 229.84358 559.575 230.68733Q559.575 231.81233 558.7469 232.59358Q557.9344 233.37483 556.6844 233.37483Q555.5594 233.37483 554.8094 232.70296Q554.0594 232.01546 553.95 230.95296ZM561.54376 233.21858L561.54376 232.01546L562.7469 232.01546L562.7469 233.21858L561.54376 233.21858ZM565.575 228.56233Q564.91876 228.31233 564.59064 227.87483Q564.27814 227.4217 564.27814 226.81233Q564.27814 225.87483 564.95 225.2342Q565.6375 224.59358 566.7469 224.59358Q567.8719 224.59358 568.5594 225.24983Q569.2469 225.90608 569.2469 226.84358Q569.2469 227.43733 568.9344 227.87483Q568.6219 228.31233 567.98126 228.56233Q568.77814 228.81233 569.1844 229.39046Q569.59064 229.96858 569.59064 230.76546Q569.59064 231.8592 568.8094 232.6092Q568.04376 233.3592 566.7625 233.3592Q565.4969 233.3592 564.71564 232.6092Q563.9344 231.8592 563.9344 230.7342Q563.9344 229.89046 564.35626 229.32796Q564.79376 228.76546 565.575 228.56233ZM565.35626 226.76546Q565.35626 227.37483 565.7469 227.76546Q566.15314 228.15608 566.77814 228.15608Q567.3875 228.15608 567.77814 227.78108Q568.16876 227.39046 568.16876 226.82796Q568.16876 226.24983 567.7625 225.8592Q567.35626 225.45296 566.7625 225.45296Q566.15314 225.45296 565.7469 225.84358Q565.35626 226.2342 565.35626 226.76546ZM565.02814 230.7342Q565.02814 231.18733 565.23126 231.6092Q565.45 232.03108 565.8719 232.26546Q566.29376 232.49983 566.77814 232.49983Q567.52814 232.49983 568.0125 232.01546Q568.5125 231.53108 568.5125 230.78108Q568.5125 230.01546 568.0125 229.51546Q567.5125 229.01546 566.7469 229.01546Q565.9969 229.01546 565.5125 229.51546Q565.02814 229.99983 565.02814 230.7342ZM571.15314 226.68733Q571.15314 225.76546 571.60626 225.12483Q572.075 224.4842 572.95 224.4842Q573.7625 224.4842 574.29376 225.06233Q574.825 225.64046 574.825 226.74983Q574.825 227.84358 574.27814 228.43733Q573.7469 229.01546 572.96564 229.01546Q572.1844 229.01546 571.66876 228.43733Q571.15314 227.8592 571.15314 226.68733ZM572.98126 225.20296Q572.59064 225.20296 572.325 225.5467Q572.075 225.89046 572.075 226.7967Q572.075 227.62483 572.325 227.96858Q572.59064 228.2967 572.98126 228.2967Q573.3875 228.2967 573.6375 227.95296Q573.90314 227.6092 573.90314 226.71858Q573.90314 225.87483 573.6375 225.5467Q573.3719 225.20296 572.98126 225.20296ZM572.98126 233.53108L577.6844 224.4842L578.54376 224.4842L573.85626 233.53108L572.98126 233.53108ZM576.7 231.20296Q576.7 230.28108 577.15314 229.64046Q577.6219 228.99983 578.5125 228.99983Q579.325 228.99983 579.85626 229.57796Q580.3875 230.14046 580.3875 231.26546Q580.3875 232.3592 579.84064 232.95296Q579.3094 233.53108 578.5125 233.53108Q577.7469 233.53108 577.21564 232.95296Q576.7 232.37483 576.7 231.20296ZM578.54376 229.71858Q578.1375 229.71858 577.8719 230.06233Q577.6219 230.40608 577.6219 231.31233Q577.6219 232.12483 577.8875 232.46858Q578.15314 232.81233 578.54376 232.81233Q578.9344 232.81233 579.2 232.46858Q579.46564 232.12483 579.46564 231.21858Q579.46564 230.39046 579.2 230.06233Q578.9344 229.71858 578.54376 229.71858Z" fill-rule="nonzero"/><path stroke="#757575" stroke-width="1.0" stroke-linecap="butt" d="M581.45 220.71858L454.76666 220.71858L440.29788 220.71858" fill-rule="nonzero"/><path fill="#9e9e9e" d="M442.29788 220.71858C442.29788 219.61401 441.40247 218.71858 440.29788 218.71858C439.19333 218.71858 438.29788 219.61401 438.29788 220.71858C438.29788 221.82315 439.19333 222.71858 440.29788 222.71858C441.40247 222.71858 442.29788 221.82315 442.29788 220.71858" fill-rule="nonzero"/><path fill="#757575" d="M30.315624 32.534374L32.20625 33.003124Q31.6125 35.346874 30.065624 36.58125Q28.51875 37.8 26.26875 37.8Q23.95625 37.8 22.503124 36.8625Q21.065624 35.909374 20.3 34.128124Q19.55 32.33125 19.55 30.284374Q19.55 28.05 20.39375 26.39375Q21.253124 24.721874 22.83125 23.8625Q24.409374 22.9875 26.3 22.9875Q28.45625 22.9875 29.909374 24.08125Q31.378124 25.175 31.95625 27.159374L30.096874 27.596874Q29.596874 26.034374 28.64375 25.33125Q27.70625 24.6125 26.26875 24.6125Q24.6125 24.6125 23.503124 25.409374Q22.39375 26.190624 21.940624 27.534374Q21.503124 28.8625 21.503124 30.26875Q21.503124 32.096874 22.034374 33.471874Q22.565624 34.83125 23.690624 35.503124Q24.815624 36.175 26.1125 36.175Q27.70625 36.175 28.815624 35.253124Q29.925 34.33125 30.315624 32.534374ZM33.221874 32.3625Q33.221874 29.4875 34.815624 28.096874Q36.159374 26.940624 38.08125 26.940624Q40.221874 26.940624 41.565624 28.346874Q42.925 29.753124 42.925 32.221874Q42.925 34.221874 42.33125 35.378124Q41.7375 36.51875 40.58125 37.159374Q39.440624 37.784374 38.08125 37.784374Q35.89375 37.784374 34.55 36.39375Q33.221874 34.9875 33.221874 32.3625ZM35.01875 32.3625Q35.01875 34.3625 35.878124 35.346874Q36.753124 36.33125 38.08125 36.33125Q39.39375 36.33125 40.253124 35.346874Q41.128124 34.346874 41.128124 32.3Q41.128124 30.378124 40.253124 29.39375Q39.378124 28.39375 38.08125 28.39375Q36.753124 28.39375 35.878124 29.39375Q35.01875 30.378124 35.01875 32.3625ZM51.659374 37.55L51.659374 36.01875Q50.45625 37.784374 48.378124 37.784374Q47.45625 37.784374 46.659374 37.440624Q45.8625 37.08125 45.471874 36.55Q45.096874 36.01875 44.940624 35.2375Q44.83125 34.721874 44.83125 33.596874L44.83125 27.175L46.58125 27.175L46.58125 32.925Q46.58125 34.3 46.690624 34.784374Q46.8625 35.471874 47.39375 35.878124Q47.940624 36.26875 48.721874 36.26875Q49.51875 36.26875 50.20625 35.8625Q50.909374 35.45625 51.190624 34.76875Q51.4875 34.065624 51.4875 32.7375L51.4875 27.175L53.2375 27.175L53.2375 37.55L51.659374 37.55ZM54.8625 37.55L54.8625 27.175L56.45625 27.175L56.45625 28.659374Q57.596874 26.940624 59.753124 26.940624Q60.690624 26.940624 61.471874 27.284374Q62.26875 27.6125 62.659374 28.159374Q63.05 28.70625 63.20625 29.45625Q63.3 29.95625 63.3 31.175L63.3 37.55L61.534374 37.55L61.534374 31.2375Q61.534374 30.159374 61.33125 29.628124Q61.128124 29.096874 60.596874 28.784374Q60.08125 28.471874 59.378124 28.471874Q58.253124 28.471874 57.440624 29.190624Q56.628124 29.89375 56.628124 31.878124L56.628124 37.55L54.8625 37.55ZM68.70625 35.971874L68.95625 37.534374Q68.22188 37.690624 67.62813 37.690624Q66.675 37.690624 66.14375 37.39375Q65.62813 37.08125 65.40938 36.596874Q65.19063 36.096874 65.19063 34.51875L65.19063 28.55L63.909374 28.55L63.909374 27.175L65.19063 27.175L65.19063 24.6125L66.94063 23.55L66.94063 27.175L68.70625 27.175L68.70625 28.55L66.94063 28.55L66.94063 34.6125Q66.94063 35.3625 67.03438 35.58125Q67.12813 35.784374 67.33125 35.925Q67.55 36.05 67.94063 36.05Q68.22188 36.05 68.70625 35.971874ZM76.22188 32.3625Q76.22188 29.4875 77.81563 28.096874Q79.15938 26.940624 81.08125 26.940624Q83.22188 26.940624 84.56563 28.346874Q85.925 29.753124 85.925 32.221874Q85.925 34.221874 85.33125 35.378124Q84.7375 36.51875 83.58125 37.159374Q82.44063 37.784374 81.08125 37.784374Q78.89375 37.784374 77.55 36.39375Q76.22188 34.9875 76.22188 32.3625ZM78.01875 32.3625Q78.01875 34.3625 78.87813 35.346874Q79.75313 36.33125 81.08125 36.33125Q82.39375 36.33125 83.25313 35.346874Q84.12813 34.346874 84.12813 32.3Q84.12813 30.378124 83.25313 29.39375Q82.37813 28.39375 81.08125 28.39375Q79.75313 28.39375 78.87813 29.39375Q78.01875 30.378124 78.01875 32.3625ZM88.28438 37.55L88.28438 28.55L86.7375 28.55L86.7375 27.175L88.28438 27.175L88.28438 26.08125Q88.28438 25.034374 88.47188 24.51875Q88.72188 23.83125 89.3625 23.409374Q90.00313 22.9875 91.15938 22.9875Q91.90938 22.9875 92.8 23.159374L92.53438 24.690624Q91.9875 24.596874 91.50313 24.596874Q90.70625 24.596874 90.3625 24.940624Q90.03438 25.284374 90.03438 26.221874L90.03438 27.175L92.06563 27.175L92.06563 28.55L90.03438 28.55L90.03438 37.55L88.28438 37.55ZM100.03438 37.55L100.03438 23.2375L102.89375 23.2375L106.26875 33.3625Q106.7375 34.784374 106.95625 35.4875Q107.20625 34.70625 107.72188 33.190624L111.14375 23.2375L113.69063 23.2375L113.69063 37.55L111.87813 37.55L111.87813 25.565624L107.70625 37.55L106.00313 37.55L101.8625 25.3625L101.8625 37.55L100.03438 37.55ZM116.22188 32.3625Q116.22188 29.4875 117.81563 28.096874Q119.15938 26.940624 121.08125 26.940624Q123.22188 26.940624 124.56563 28.346874Q125.925 29.753124 125.925 32.221874Q125.925 34.221874 125.33125 35.378124Q124.7375 36.51875 123.58125 37.159374Q122.44063 37.784374 121.08125 37.784374Q118.89375 37.784374 117.55 36.39375Q116.22188 34.9875 116.22188 32.3625ZM118.01875 32.3625Q118.01875 34.3625 118.87813 35.346874Q119.75313 36.33125 121.08125 36.33125Q122.39375 36.33125 123.25313 35.346874Q124.12813 34.346874 124.12813 32.3Q124.12813 30.378124 123.25313 29.39375Q122.37813 28.39375 121.08125 28.39375Q119.75313 28.39375 118.87813 29.39375Q118.01875 30.378124 118.01875 32.3625ZM131.70625 35.971874L131.95625 37.534374Q131.22188 37.690624 130.62813 37.690624Q129.675 37.690624 129.14375 37.39375Q128.62813 37.08125 128.40938 36.596874Q128.19063 36.096874 128.19063 34.51875L128.19063 28.55L126.90938 28.55L126.90938 27.175L128.19063 27.175L128.19063 24.6125L129.94063 23.55L129.94063 27.175L131.70625 27.175L131.70625 28.55L129.94063 28.55L129.94063 34.6125Q129.94063 35.3625 130.03438 35.58125Q130.12813 35.784374 130.33125 35.925Q130.55 36.05 130.94063 36.05Q131.22188 36.05 131.70625 35.971874ZM133.87813 25.253124L133.87813 23.2375L135.64375 23.2375L135.64375 25.253124L133.87813 25.253124ZM133.87813 37.55L133.87813 27.175L135.64375 27.175L135.64375 37.55L133.87813 37.55ZM140.75313 37.55L136.8 27.175L138.65938 27.175L140.89375 33.39375Q141.25313 34.39375 141.55 35.471874Q141.78438 34.659374 142.20625 33.503124L144.50313 27.175L146.31563 27.175L142.39375 37.55L140.75313 37.55ZM153.97188 34.20625L155.78438 34.440624Q155.3625 36.01875 154.19063 36.909374Q153.03438 37.784374 151.22188 37.784374Q148.95625 37.784374 147.6125 36.39375Q146.28438 34.9875 146.28438 32.45625Q146.28438 29.83125 147.62813 28.39375Q148.97188 26.940624 151.12813 26.940624Q153.20625 26.940624 154.51875 28.3625Q155.84688 29.76875 155.84688 32.346874Q155.84688 32.503124 155.83125 32.815624L148.09688 32.815624Q148.19063 34.51875 149.06563 35.425Q149.94063 36.33125 151.2375 36.33125Q152.20625 36.33125 152.87813 35.83125Q153.56563 35.315624 153.97188 34.20625ZM148.19063 31.3625L153.9875 31.3625Q153.87813 30.065624 153.33125 29.409374Q152.4875 28.39375 151.14375 28.39375Q149.94063 28.39375 149.1125 29.20625Q148.28438 30.003124 148.19063 31.3625Z" fill-rule="nonzero"/></svg>