<svg version="1.1" viewBox="0.0 0.0 600.0 371.0" fill="none" stroke="none" stroke-linecap="square" stroke-miterlimit="10" width="600" height="371" xmlns:xlink="http://www.w3.org/1999/xlink" xmlns="http://www.w3.org/2000/svg"><path fill="#ffffff" d="M0 0L600.0 0L600.0 371.0L0 371.0L0 0Z" fill-rule="nonzero"/><path fill="#ea4335" d="M151.23334 203.68333C151.23334 121.521774 217.83844 54.916668 300.0 54.916668L300.0 203.68333Z" fill-rule="nonzero"/><path fill="#4a86e8" d="M300.0 54.916668C382.16156 54.916668 448.76666 121.521774 448.76666 203.68333C448.76666 285.8449 382.16156 352.45 300.0 352.45C217.83844 352.45 151.23334 285.8449 151.23334 203.68333L300.0 203.68333Z" fill-rule="nonzero"/><path fill="#1a1a1a" d="M21.89375 99.24911L21.89375 95.60848L18.58125 90.65536L19.971874 90.65536L21.659374 93.24911Q22.128124 93.96786 22.534374 94.70223Q22.925 94.03036 23.471874 93.18661L25.14375 90.65536L26.45625 90.65536L23.034374 95.60848L23.034374 99.24911L21.89375 99.24911ZM26.503124 99.24911L26.503124 90.65536L32.70625 90.65536L32.70625 91.67098L27.64375 91.67098L27.64375 94.29598L32.39375 94.29598L32.39375 95.31161L27.64375 95.31161L27.64375 98.23348L32.909374 98.23348L32.909374 99.24911L26.503124 99.24911ZM34.096874 96.48348L35.159374 96.38973Q35.2375 97.04598 35.51875 97.45223Q35.8 97.85848 36.378124 98.12411Q36.971874 98.37411 37.70625 98.37411Q38.346874 98.37411 38.846874 98.18661Q39.346874 97.98348 39.58125 97.65536Q39.83125 97.31161 39.83125 96.92098Q39.83125 96.51473 39.596874 96.21786Q39.3625 95.90536 38.83125 95.70223Q38.471874 95.56161 37.284374 95.28036Q36.1125 94.99911 35.64375 94.74911Q35.01875 94.42098 34.721874 93.95223Q34.425 93.46786 34.425 92.87411Q34.425 92.23348 34.784374 91.67098Q35.159374 91.09286 35.8625 90.81161Q36.58125 90.51473 37.440624 90.51473Q38.39375 90.51473 39.128124 90.82723Q39.8625 91.12411 40.253124 91.73348Q40.64375 92.32723 40.675 93.07723L39.58125 93.15536Q39.4875 92.34286 38.971874 91.93661Q38.471874 91.51473 37.4875 91.51473Q36.45625 91.51473 35.9875 91.88973Q35.51875 92.26473 35.51875 92.79598Q35.51875 93.26473 35.846874 93.56161Q36.175 93.85848 37.55 94.17098Q38.940624 94.48348 39.45625 94.71786Q40.20625 95.07723 40.565624 95.60848Q40.925 96.12411 40.925 96.82723Q40.925 97.51473 40.534374 98.12411Q40.14375 98.71786 39.409374 99.06161Q38.675 99.38973 37.753124 99.38973Q36.58125 99.38973 35.784374 99.06161Q35.003124 98.71786 34.55 98.03036Q34.1125 97.34286 34.096874 96.48348Z" fill-rule="nonzero"/><path fill="#9e9e9e" d="M24.596874 115.23348L24.596874 116.24911L18.909374 116.24911Q18.909374 115.87411 19.034374 115.51473Q19.253124 114.93661 19.721874 114.37411Q20.20625 113.81161 21.1125 113.07723Q22.51875 111.92098 23.003124 111.24911Q23.503124 110.57723 23.503124 109.98348Q23.503124 109.35848 23.05 108.93661Q22.596874 108.49911 21.878124 108.49911Q21.1125 108.49911 20.659374 108.95223Q20.20625 109.40536 20.190624 110.21786L19.1125 110.10848Q19.221874 108.88973 19.940624 108.26473Q20.675 107.62411 21.909374 107.62411Q23.14375 107.62411 23.8625 108.31161Q24.58125 108.99911 24.58125 110.01473Q24.58125 110.53036 24.3625 111.03036Q24.159374 111.51473 23.659374 112.07723Q23.175 112.62411 22.05 113.57723Q21.096874 114.37411 20.815624 114.67098Q20.55 114.95223 20.378124 115.23348L24.596874 115.23348ZM26.05 113.99911L27.159374 113.90536Q27.284374 114.71786 27.721874 115.12411Q28.175 115.53036 28.815624 115.53036Q29.565624 115.53036 30.096874 114.95223Q30.628124 114.37411 30.628124 113.43661Q30.628124 112.53036 30.1125 112.01473Q29.6125 111.48348 28.784374 111.48348Q28.284374 111.48348 27.8625 111.71786Q27.45625 111.95223 27.221874 112.31161L26.2375 112.18661L27.065624 107.78036L31.346874 107.78036L31.346874 108.78036L27.909374 108.78036L27.45625 111.09286Q28.221874 110.54598 29.065624 110.54598Q30.190624 110.54598 30.95625 111.32723Q31.7375 112.10848 31.7375 113.34286Q31.7375 114.49911 31.065624 115.35848Q30.2375 116.38973 28.815624 116.38973Q27.64375 116.38973 26.89375 115.73348Q26.159374 115.07723 26.05 113.99911ZM33.64375 116.24911L33.64375 115.04598L34.846874 115.04598L34.846874 116.24911L33.64375 116.24911ZM36.05 112.01473Q36.05 110.48348 36.3625 109.56161Q36.675 108.62411 37.284374 108.12411Q37.909374 107.62411 38.846874 107.62411Q39.534374 107.62411 40.05 107.90536Q40.58125 108.18661 40.925 108.71786Q41.26875 109.23348 41.45625 109.98348Q41.64375 110.73348 41.64375 112.01473Q41.64375 113.53036 41.33125 114.45223Q41.034374 115.37411 40.409374 115.88973Q39.8 116.38973 38.846874 116.38973Q37.6125 116.38973 36.89375 115.49911Q36.05 114.43661 36.05 112.01473ZM37.128124 112.01473Q37.128124 114.12411 37.628124 114.82723Q38.128124 115.53036 38.846874 115.53036Q39.58125 115.53036 40.065624 114.82723Q40.565624 114.12411 40.565624 112.01473Q40.565624 109.88973 40.065624 109.20223Q39.58125 108.49911 38.83125 108.49911Q38.1125 108.49911 37.675 109.10848Q37.128124 109.88973 37.128124 112.01473ZM43.253124 109.71786Q43.253124 108.79598 43.70625 108.15536Q44.175 107.51473 45.05 107.51473Q45.8625 107.51473 46.39375 108.09286Q46.925 108.67098 46.925 109.78036Q46.925 110.87411 46.378124 111.46786Q45.846874 112.04598 45.065624 112.04598Q44.284374 112.04598 43.76875 111.46786Q43.253124 110.88973 43.253124 109.71786ZM45.08125 108.23348Q44.690624 108.23348 44.425 108.57723Q44.175 108.92098 44.175 109.82723Q44.175 110.65536 44.425 110.99911Q44.690624 111.32723 45.08125 111.32723Q45.4875 111.32723 45.7375 110.98348Q46.003124 110.63973 46.003124 109.74911Q46.003124 108.90536 45.7375 108.57723Q45.471874 108.23348 45.08125 108.23348ZM45.08125 116.56161L49.784374 107.51473L50.64375 107.51473L45.95625 116.56161L45.08125 116.56161ZM48.8 114.23348Q48.8 113.31161 49.253124 112.67098Q49.721874 112.03036 50.6125 112.03036Q51.425 112.03036 51.95625 112.60848Q52.4875 113.17098 52.4875 114.29598Q52.4875 115.38973 51.940624 115.98348Q51.409374 116.56161 50.6125 116.56161Q49.846874 116.56161 49.315624 115.98348Q48.8 115.40536 48.8 114.23348ZM50.64375 112.74911Q50.2375 112.74911 49.971874 113.09286Q49.721874 113.43661 49.721874 114.34286Q49.721874 115.15536 49.9875 115.49911Q50.253124 115.84286 50.64375 115.84286Q51.034374 115.84286 51.3 115.49911Q51.565624 115.15536 51.565624 114.24911Q51.565624 113.42098 51.3 113.09286Q51.034374 112.74911 50.64375 112.74911Z" fill-rule="nonzero"/><path stroke="#757575" stroke-width="1.0" stroke-linecap="butt" d="M18.55 103.74911L145.23334 103.74911L200.06578 103.74911" fill-rule="nonzero"/><path fill="#9e9e9e" d="M202.06578 103.74911C202.06578 102.64454 201.17035 101.74911 200.06578 101.74911C198.96121 101.74911 198.06578 102.64454 198.06578 103.74911C198.06578 104.85368 198.96121 105.74911 200.06578 105.74911C201.17035 105.74911 202.06578 104.85368 202.06578 103.74911" fill-rule="nonzero"/><path fill="#1a1a1a" d="M564.3719 299.11755L564.3719 290.5238L565.52814 290.5238L570.04376 297.2738L570.04376 290.5238L571.1375 290.5238L571.1375 299.11755L569.96564 299.11755L565.45 292.36755L565.45 299.11755L564.3719 299.11755ZM573.02814 294.93005Q573.02814 292.78943 574.16876 291.5863Q575.325 290.36755 577.1375 290.36755Q578.34064 290.36755 579.29376 290.94568Q580.2469 291.50818 580.7469 292.5238Q581.2469 293.53943 581.2469 294.8363Q581.2469 296.13318 580.71564 297.16443Q580.1844 298.19568 579.21564 298.72693Q578.2625 299.25818 577.1375 299.25818Q575.91876 299.25818 574.96564 298.68005Q574.0125 298.0863 573.5125 297.0863Q573.02814 296.07068 573.02814 294.93005ZM574.2 294.94568Q574.2 296.50818 575.02814 297.3988Q575.8719 298.28943 577.1375 298.28943Q578.41876 298.28943 579.2469 297.3988Q580.075 296.49255 580.075 294.82068Q580.075 293.7738 579.71564 292.99255Q579.3719 292.2113 578.6844 291.78943Q577.9969 291.35193 577.15314 291.35193Q575.95 291.35193 575.075 292.18005Q574.2 293.00818 574.2 294.94568Z" fill-rule="nonzero"/><path fill="#9e9e9e" d="M547.0125 308.6488L547.0125 307.63318L552.575 307.63318L552.575 308.4613Q551.7625 309.3363 550.95 310.78943Q550.15314 312.22693 549.71564 313.75818Q549.3875 314.8363 549.3094 316.11755L548.21564 316.11755Q548.23126 315.10193 548.60626 313.66443Q548.9969 312.22693 549.7 310.8988Q550.41876 309.57068 551.23126 308.6488L547.0125 308.6488ZM553.95 313.86755L555.0594 313.7738Q555.1844 314.5863 555.6219 314.99255Q556.075 315.3988 556.71564 315.3988Q557.46564 315.3988 557.9969 314.82068Q558.52814 314.24255 558.52814 313.30505Q558.52814 312.3988 558.0125 311.88318Q557.5125 311.35193 556.6844 311.35193Q556.1844 311.35193 555.7625 311.5863Q555.35626 311.82068 555.1219 312.18005L554.1375 312.05505L554.96564 307.6488L559.2469 307.6488L559.2469 308.6488L555.8094 308.6488L555.35626 310.9613Q556.1219 310.41443 556.96564 310.41443Q558.09064 310.41443 558.85626 311.19568Q559.6375 311.97693 559.6375 313.2113Q559.6375 314.36755 558.96564 315.22693Q558.1375 316.25818 556.71564 316.25818Q555.54376 316.25818 554.79376 315.60193Q554.0594 314.94568 553.95 313.86755ZM561.54376 316.11755L561.54376 314.91443L562.7469 314.91443L562.7469 316.11755L561.54376 316.11755ZM563.95 311.88318Q563.95 310.35193 564.2625 309.43005Q564.575 308.49255 565.1844 307.99255Q565.8094 307.49255 566.7469 307.49255Q567.4344 307.49255 567.95 307.7738Q568.48126 308.05505 568.825 308.5863Q569.16876 309.10193 569.35626 309.85193Q569.54376 310.60193 569.54376 311.88318Q569.54376 313.3988 569.23126 314.32068Q568.9344 315.24255 568.3094 315.75818Q567.7 316.25818 566.7469 316.25818Q565.5125 316.25818 564.79376 315.36755Q563.95 314.30505 563.95 311.88318ZM565.02814 311.88318Q565.02814 313.99255 565.52814 314.69568Q566.02814 315.3988 566.7469 315.3988Q567.48126 315.3988 567.96564 314.69568Q568.46564 313.99255 568.46564 311.88318Q568.46564 309.75818 567.96564 309.07068Q567.48126 308.36755 566.73126 308.36755Q566.0125 308.36755 565.575 308.97693Q565.02814 309.75818 565.02814 311.88318ZM571.15314 309.5863Q571.15314 308.66443 571.60626 308.0238Q572.075 307.38318 572.95 307.38318Q573.7625 307.38318 574.29376 307.9613Q574.825 308.53943 574.825 309.6488Q574.825 310.74255 574.27814 311.3363Q573.7469 311.91443 572.96564 311.91443Q572.1844 311.91443 571.66876 311.3363Q571.15314 310.75818 571.15314 309.5863ZM572.98126 308.10193Q572.59064 308.10193 572.325 308.44568Q572.075 308.78943 572.075 309.69568Q572.075 310.5238 572.325 310.86755Q572.59064 311.19568 572.98126 311.19568Q573.3875 311.19568 573.6375 310.85193Q573.90314 310.50818 573.90314 309.61755Q573.90314 308.7738 573.6375 308.44568Q573.3719 308.10193 572.98126 308.10193ZM572.98126 316.43005L577.6844 307.38318L578.54376 307.38318L573.85626 316.43005L572.98126 316.43005ZM576.7 314.10193Q576.7 313.18005 577.15314 312.53943Q577.6219 311.8988 578.5125 311.8988Q579.325 311.8988 579.85626 312.47693Q580.3875 313.03943 580.3875 314.16443Q580.3875 315.25818 579.84064 315.85193Q579.3094 316.43005 578.5125 316.43005Q577.7469 316.43005 577.21564 315.85193Q576.7 315.2738 576.7 314.10193ZM578.54376 312.61755Q578.1375 312.61755 577.8719 312.9613Q577.6219 313.30505 577.6219 314.2113Q577.6219 315.0238 577.8875 315.36755Q578.15314 315.7113 578.54376 315.7113Q578.9344 315.7113 579.2 315.36755Q579.46564 315.0238 579.46564 314.11755Q579.46564 313.28943 579.2 312.9613Q578.9344 312.61755 578.54376 312.61755Z" fill-rule="nonzero"/><path stroke="#757575" stroke-width="1.0" stroke-linecap="butt" d="M581.45 303.61755L454.76666 303.61755L399.93423 303.61755" fill-rule="nonzero"/><path fill="#9e9e9e" d="M401.93423 303.61755C401.93423 302.513 401.0388 301.61755 399.93423 301.61755C398.82965 301.61755 397.93423 302.513 397.93423 303.61755C397.93423 304.72214 398.82965 305.61755 399.93423 305.61755C401.0388 305.61755 401.93423 304.72214 401.93423 303.61755" fill-rule="nonzero"/><path fill="#757575" d="M20.034374 37.55L20.034374 23.2375L22.89375 23.2375L26.26875 33.3625Q26.7375 34.784374 26.95625 35.4875Q27.20625 34.70625 27.721874 33.190624L31.14375 23.2375L33.690624 23.2375L33.690624 37.55L31.878124 37.55L31.878124 25.565624L27.70625 37.55L26.003124 37.55L21.8625 25.3625L21.8625 37.55L20.034374 37.55ZM36.221874 32.3625Q36.221874 29.4875 37.815624 28.096874Q39.159374 26.940624 41.08125 26.940624Q43.221874 26.940624 44.565624 28.346874Q45.925 29.753124 45.925 32.221874Q45.925 34.221874 45.33125 35.378124Q44.7375 36.51875 43.58125 37.159374Q42.440624 37.784374 41.08125 37.784374Q38.89375 37.784374 37.55 36.39375Q36.221874 34.9875 36.221874 32.3625ZM38.01875 32.3625Q38.01875 34.3625 38.878124 35.346874Q39.753124 36.33125 41.08125 36.33125Q42.39375 36.33125 43.253124 35.346874Q44.128124 34.346874 44.128124 32.3Q44.128124 30.378124 43.253124 29.39375Q42.378124 28.39375 41.08125 28.39375Q39.753124 28.39375 38.878124 29.39375Q38.01875 30.378124 38.01875 32.3625ZM47.8625 37.55L47.8625 27.175L49.45625 27.175L49.45625 28.659374Q50.596874 26.940624 52.753124 26.940624Q53.690624 26.940624 54.471874 27.284374Q55.26875 27.6125 55.659374 28.159374Q56.05 28.70625 56.20625 29.45625Q56.3 29.95625 56.3 31.175L56.3 37.55L54.534374 37.55L54.534374 31.2375Q54.534374 30.159374 54.33125 29.628124Q54.128124 29.096874 53.596874 28.784374Q53.08125 28.471874 52.378124 28.471874Q51.253124 28.471874 50.440624 29.190624Q49.628124 29.89375 49.628124 31.878124L49.628124 37.55L47.8625 37.55ZM64.97188 34.20625L66.78438 34.440624Q66.3625 36.01875 65.19063 36.909374Q64.03438 37.784374 62.221874 37.784374Q59.95625 37.784374 58.6125 36.39375Q57.284374 34.9875 57.284374 32.45625Q57.284374 29.83125 58.628124 28.39375Q59.971874 26.940624 62.128124 26.940624Q64.20625 26.940624 65.51875 28.3625Q66.84688 29.76875 66.84688 32.346874Q66.84688 32.503124 66.83125 32.815624L59.096874 32.815624Q59.190624 34.51875 60.065624 35.425Q60.940624 36.33125 62.2375 36.33125Q63.20625 36.33125 63.878124 35.83125Q64.56563 35.315624 64.97188 34.20625ZM59.190624 31.3625L64.9875 31.3625Q64.87813 30.065624 64.33125 29.409374Q63.4875 28.39375 62.14375 28.39375Q60.940624 28.39375 60.1125 29.20625Q59.284374 30.003124 59.190624 31.3625ZM68.78438 41.55L68.59688 39.89375Q69.175 40.05 69.59688 40.05Q70.19063 40.05 70.53438 39.846874Q70.89375 39.659374 71.1125 39.315624Q71.28438 39.05 71.65938 38.003124Q71.70625 37.846874 71.81563 37.565624L67.87813 27.175L69.76875 27.175L71.925 33.190624Q72.34688 34.33125 72.675 35.58125Q72.9875 34.378124 73.39375 33.221874L75.6125 27.175L77.37813 27.175L73.425 37.721874Q72.8 39.440624 72.44063 40.08125Q71.97188 40.95625 71.3625 41.346874Q70.76875 41.753124 69.925 41.753124Q69.40938 41.753124 68.78438 41.55ZM84.8625 37.55L84.8625 27.175L86.44063 27.175L86.44063 28.628124Q86.925 27.878124 87.7375 27.409374Q88.55 26.940624 89.58125 26.940624Q90.7375 26.940624 91.47188 27.425Q92.20625 27.89375 92.51875 28.753124Q93.75313 26.940624 95.72188 26.940624Q97.26875 26.940624 98.09688 27.8Q98.925 28.659374 98.925 30.425L98.925 37.55L97.175 37.55L97.175 31.01875Q97.175 29.95625 97.00313 29.503124Q96.83125 29.034374 96.37813 28.753124Q95.94063 28.471874 95.33125 28.471874Q94.2375 28.471874 93.50313 29.20625Q92.78438 29.925 92.78438 31.51875L92.78438 37.55L91.03438 37.55L91.03438 30.815624Q91.03438 29.64375 90.59688 29.065624Q90.175 28.471874 89.19063 28.471874Q88.45625 28.471874 87.81563 28.8625Q87.19063 29.253124 86.90938 30.003124Q86.62813 30.753124 86.62813 32.175L86.62813 37.55L84.8625 37.55ZM100.22188 32.3625Q100.22188 29.4875 101.81563 28.096874Q103.15938 26.940624 105.08125 26.940624Q107.22188 26.940624 108.56563 28.346874Q109.925 29.753124 109.925 32.221874Q109.925 34.221874 109.33125 35.378124Q108.7375 36.51875 107.58125 37.159374Q106.44063 37.784374 105.08125 37.784374Q102.89375 37.784374 101.55 36.39375Q100.22188 34.9875 100.22188 32.3625ZM102.01875 32.3625Q102.01875 34.3625 102.87813 35.346874Q103.75313 36.33125 105.08125 36.33125Q106.39375 36.33125 107.25313 35.346874Q108.12813 34.346874 108.12813 32.3Q108.12813 30.378124 107.25313 29.39375Q106.37813 28.39375 105.08125 28.39375Q103.75313 28.39375 102.87813 29.39375Q102.01875 30.378124 102.01875 32.3625ZM115.70625 35.971874L115.95625 37.534374Q115.22188 37.690624 114.62813 37.690624Q113.675 37.690624 113.14375 37.39375Q112.62813 37.08125 112.40938 36.596874Q112.19063 36.096874 112.19063 34.51875L112.19063 28.55L110.90938 28.55L110.90938 27.175L112.19063 27.175L112.19063 24.6125L113.94063 23.55L113.94063 27.175L115.70625 27.175L115.70625 28.55L113.94063 28.55L113.94063 34.6125Q113.94063 35.3625 114.03438 35.58125Q114.12813 35.784374 114.33125 35.925Q114.55 36.05 114.94063 36.05Q115.22188 36.05 115.70625 35.971874ZM117.87813 25.253124L117.87813 23.2375L119.64375 23.2375L119.64375 25.253124L117.87813 25.253124ZM117.87813 37.55L117.87813 27.175L119.64375 27.175L119.64375 37.55L117.87813 37.55ZM124.75313 37.55L120.8 27.175L122.65938 27.175L124.89375 33.39375Q125.25313 34.39375 125.55 35.471874Q125.78438 34.659374 126.20625 33.503124L128.50313 27.175L130.31563 27.175L126.39375 37.55L124.75313 37.55ZM137.97188 34.20625L139.78438 34.440624Q139.3625 36.01875 138.19063 36.909374Q137.03438 37.784374 135.22188 37.784374Q132.95625 37.784374 131.6125 36.39375Q130.28438 34.9875 130.28438 32.45625Q130.28438 29.83125 131.62813 28.39375Q132.97188 26.940624 135.12813 26.940624Q137.20625 26.940624 138.51875 28.3625Q139.84688 29.76875 139.84688 32.346874Q139.84688 32.503124 139.83125 32.815624L132.09688 32.815624Q132.19063 34.51875 133.06563 35.425Q133.94063 36.33125 135.2375 36.33125Q136.20625 36.33125 136.87813 35.83125Q137.56563 35.315624 137.97188 34.20625ZM132.19063 31.3625L137.9875 31.3625Q137.87813 30.065624 137.33125 29.409374Q136.4875 28.39375 135.14375 28.39375Q133.94063 28.39375 133.1125 29.20625Q132.28438 30.003124 132.19063 31.3625ZM149.78438 37.55L146.6125 27.175L148.425 27.175L150.08125 33.159374L150.69063 35.39375Q150.7375 35.221874 151.22188 33.253124L152.87813 27.175L154.69063 27.175L156.2375 33.190624L156.75313 35.175L157.34688 33.175L159.12813 27.175L160.83125 27.175L157.59688 37.55L155.76875 37.55L154.1125 31.33125L153.72188 29.565624L151.6125 37.55L149.78438 37.55ZM162.87813 25.253124L162.87813 23.2375L164.64375 23.2375L164.64375 25.253124L162.87813 25.253124ZM162.87813 37.55L162.87813 27.175L164.64375 27.175L164.64375 37.55L162.87813 37.55ZM170.70625 35.971874L170.95625 37.534374Q170.22188 37.690624 169.62813 37.690624Q168.675 37.690624 168.14375 37.39375Q167.62813 37.08125 167.40938 36.596874Q167.19063 36.096874 167.19063 34.51875L167.19063 28.55L165.90938 28.55L165.90938 27.175L167.19063 27.175L167.19063 24.6125L168.94063 23.55L168.94063 27.175L170.70625 27.175L170.70625 28.55L168.94063 28.55L168.94063 34.6125Q168.94063 35.3625 169.03438 35.58125Q169.12813 35.784374 169.33125 35.925Q169.55 36.05 169.94063 36.05Q170.22188 36.05 170.70625 35.971874ZM172.8625 37.55L172.8625 23.2375L174.62813 23.2375L174.62813 28.3625Q175.8625 26.940624 177.7375 26.940624Q178.87813 26.940624 179.72188 27.39375Q180.58125 27.846874 180.94063 28.659374Q181.31563 29.45625 181.31563 30.971874L181.31563 37.55L179.56563 37.55L179.56563 30.971874Q179.56563 29.659374 178.9875 29.065624Q178.40938 28.45625 177.37813 28.45625Q176.59688 28.45625 175.89375 28.8625Q175.20625 29.26875 174.90938 29.971874Q174.62813 30.659374 174.62813 31.878124L174.62813 37.55L172.8625 37.55ZM188.84688 37.55L188.84688 27.175L190.425 27.175L190.425 28.753124Q191.03438 27.64375 191.55 27.3Q192.06563 26.940624 192.675 26.940624Q193.56563 26.940624 194.4875 27.503124L193.87813 29.14375Q193.2375 28.753124 192.59688 28.753124Q192.01875 28.753124 191.55 29.1125Q191.09688 29.45625 190.89375 30.065624Q190.6125 31.003124 190.6125 32.1125L190.6125 37.55L188.84688 37.55ZM202.97188 34.20625L204.78438 34.440624Q204.3625 36.01875 203.19063 36.909374Q202.03438 37.784374 200.22188 37.784374Q197.95625 37.784374 196.6125 36.39375Q195.28438 34.9875 195.28438 32.45625Q195.28438 29.83125 196.62813 28.39375Q197.97188 26.940624 200.12813 26.940624Q202.20625 26.940624 203.51875 28.3625Q204.84688 29.76875 204.84688 32.346874Q204.84688 32.503124 204.83125 32.815624L197.09688 32.815624Q197.19063 34.51875 198.06563 35.425Q198.94063 36.33125 200.2375 36.33125Q201.20625 36.33125 201.87813 35.83125Q202.56563 35.315624 202.97188 34.20625ZM197.19063 31.3625L202.9875 31.3625Q202.87813 30.065624 202.33125 29.409374Q201.4875 28.39375 200.14375 28.39375Q198.94063 28.39375 198.1125 29.20625Q197.28438 30.003124 197.19063 31.3625ZM206.15938 34.45625L207.90938 34.175Q208.05 35.221874 208.72188 35.784374Q209.39375 36.33125 210.59688 36.33125Q211.8 36.33125 212.37813 35.846874Q212.97188 35.346874 212.97188 34.690624Q212.97188 34.096874 212.45625 33.753124Q212.09688 33.51875 210.65938 33.159374Q208.72188 32.659374 207.97188 32.315624Q207.2375 31.95625 206.84688 31.33125Q206.45625 30.690624 206.45625 29.925Q206.45625 29.2375 206.76875 28.64375Q207.09688 28.05 207.64375 27.659374Q208.05 27.3625 208.75313 27.159374Q209.47188 26.940624 210.28438 26.940624Q211.50313 26.940624 212.425 27.3Q213.34688 27.64375 213.78438 28.253124Q214.22188 28.846874 214.39375 29.846874L212.675 30.08125Q212.55 29.284374 211.9875 28.846874Q211.425 28.39375 210.40938 28.39375Q209.19063 28.39375 208.675 28.8Q208.15938 29.190624 208.15938 29.721874Q208.15938 30.065624 208.37813 30.346874Q208.58125 30.628124 209.05 30.815624Q209.31563 30.909374 210.59688 31.253124Q212.47188 31.753124 213.20625 32.08125Q213.94063 32.39375 214.3625 33.003124Q214.78438 33.596874 214.78438 34.503124Q214.78438 35.378124 214.26875 36.159374Q213.75313 36.940624 212.78438 37.3625Q211.81563 37.784374 210.59688 37.784374Q208.58125 37.784374 207.51875 36.940624Q206.45625 36.096874 206.15938 34.45625ZM216.8625 41.51875L216.8625 27.175L218.47188 27.175L218.47188 28.51875Q219.03438 27.7375 219.7375 27.346874Q220.45625 26.940624 221.47188 26.940624Q222.8 26.940624 223.81563 27.628124Q224.83125 28.315624 225.34688 29.565624Q225.87813 30.8 225.87813 32.284374Q225.87813 33.878124 225.3 35.159374Q224.7375 36.425 223.64375 37.1125Q222.55 37.784374 221.34688 37.784374Q220.47188 37.784374 219.76875 37.409374Q219.08125 37.034374 218.62813 36.471874L218.62813 41.51875L216.8625 41.51875ZM218.45625 32.425Q218.45625 34.425 219.26875 35.378124Q220.08125 36.33125 221.2375 36.33125Q222.40938 36.33125 223.2375 35.346874Q224.08125 34.3625 224.08125 32.26875Q224.08125 30.3 223.25313 29.315624Q222.44063 28.315624 221.31563 28.315624Q220.19063 28.315624 219.31563 29.378124Q218.45625 30.425 218.45625 32.425ZM234.97188 34.20625L236.78438 34.440624Q236.3625 36.01875 235.19063 36.909374Q234.03438 37.784374 232.22188 37.784374Q229.95625 37.784374 228.6125 36.39375Q227.28438 34.9875 227.28438 32.45625Q227.28438 29.83125 228.62813 28.39375Q229.97188 26.940624 232.12813 26.940624Q234.20625 26.940624 235.51875 28.3625Q236.84688 29.76875 236.84688 32.346874Q236.84688 32.503124 236.83125 32.815624L229.09688 32.815624Q229.19063 34.51875 230.06563 35.425Q230.94063 36.33125 232.2375 36.33125Q233.20625 36.33125 233.87813 35.83125Q234.56563 35.315624 234.97188 34.20625ZM229.19063 31.3625L234.9875 31.3625Q234.87813 30.065624 234.33125 29.409374Q233.4875 28.39375 232.14375 28.39375Q230.94063 28.39375 230.1125 29.20625Q229.28438 30.003124 229.19063 31.3625ZM245.64375 33.753124L247.3625 33.971874Q247.08125 35.76875 245.90938 36.784374Q244.75313 37.784374 243.05 37.784374Q240.925 37.784374 239.62813 36.39375Q238.33125 35.003124 238.33125 32.409374Q238.33125 30.721874 238.87813 29.471874Q239.44063 28.20625 240.58125 27.58125Q241.72188 26.940624 243.06563 26.940624Q244.75313 26.940624 245.81563 27.8Q246.89375 28.659374 247.20625 30.221874L245.4875 30.4875Q245.25313 29.440624 244.62813 28.925Q244.00313 28.39375 243.12813 28.39375Q241.8 28.39375 240.97188 29.346874Q240.14375 30.3 240.14375 32.346874Q240.14375 34.440624 240.94063 35.39375Q241.7375 36.33125 243.03438 36.33125Q244.06563 36.33125 244.75313 35.70625Q245.45625 35.065624 245.64375 33.753124ZM252.70625 35.971874L252.95625 37.534374Q252.22188 37.690624 251.62813 37.690624Q250.675 37.690624 250.14375 37.39375Q249.62813 37.08125 249.40938 36.596874Q249.19063 36.096874 249.19063 34.51875L249.19063 28.55L247.90938 28.55L247.90938 27.175L249.19063 27.175L249.19063 24.6125L250.94063 23.55L250.94063 27.175L252.70625 27.175L252.70625 28.55L250.94063 28.55L250.94063 34.6125Q250.94063 35.3625 251.03438 35.58125Q251.12813 35.784374 251.33125 35.925Q251.55 36.05 251.94063 36.05Q252.22188 36.05 252.70625 35.971874ZM264.70624 35.971874L264.95624 37.534374Q264.22186 37.690624 263.6281 37.690624Q262.675 37.690624 262.14374 37.39375Q261.6281 37.08125 261.40936 36.596874Q261.1906 36.096874 261.1906 34.51875L261.1906 28.55L259.90936 28.55L259.90936 27.175L261.1906 27.175L261.1906 24.6125L262.9406 23.55L262.9406 27.175L264.70624 27.175L264.70624 28.55L262.9406 28.55L262.9406 34.6125Q262.9406 35.3625 263.03436 35.58125Q263.1281 35.784374 263.33124 35.925Q263.55 36.05 263.9406 36.05Q264.22186 36.05 264.70624 35.971874ZM266.22186 32.3625Q266.22186 29.4875 267.8156 28.096874Q269.15936 26.940624 271.08124 26.940624Q273.22186 26.940624 274.5656 28.346874Q275.925 29.753124 275.925 32.221874Q275.925 34.221874 275.33124 35.378124Q274.7375 36.51875 273.58124 37.159374Q272.4406 37.784374 271.08124 37.784374Q268.89374 37.784374 267.55 36.39375Q266.22186 34.9875 266.22186 32.3625ZM268.01874 32.3625Q268.01874 34.3625 268.8781 35.346874Q269.7531 36.33125 271.08124 36.33125Q272.39374 36.33125 273.2531 35.346874Q274.1281 34.346874 274.1281 32.3Q274.1281 30.378124 273.2531 29.39375Q272.3781 28.39375 271.08124 28.39375Q269.7531 28.39375 268.8781 29.39375Q268.01874 30.378124 268.01874 32.3625ZM284.1281 37.55L284.1281 23.2375L290.47186 23.2375Q292.3781 23.2375 293.3781 23.628124Q294.3781 24.003124 294.97186 24.9875Q295.5656 25.95625 295.5656 27.14375Q295.5656 28.659374 294.58124 29.70625Q293.59686 30.753124 291.53436 31.034374Q292.28436 31.39375 292.675 31.753124Q293.5031 32.503124 294.2531 33.659374L296.7375 37.55L294.3625 37.55L292.45624 34.565624Q291.6281 33.284374 291.09686 32.596874Q290.5656 31.909374 290.1281 31.64375Q289.70624 31.3625 289.26874 31.253124Q288.9406 31.190624 288.22186 31.190624L286.01874 31.190624L286.01874 37.55L284.1281 37.55ZM286.01874 29.55L290.09686 29.55Q291.39374 29.55 292.1125 29.284374Q292.84686 29.01875 293.22186 28.425Q293.6125 27.83125 293.6125 27.14375Q293.6125 26.128124 292.8781 25.471874Q292.14374 24.815624 290.55 24.815624L286.01874 24.815624L286.01874 29.55ZM304.64374 36.26875Q303.65936 37.096874 302.7531 37.440624Q301.84686 37.784374 300.8156 37.784374Q299.1125 37.784374 298.1906 36.95625Q297.26874 36.1125 297.26874 34.815624Q297.26874 34.05 297.6125 33.425Q297.97186 32.8 298.53436 32.425Q299.09686 32.034374 299.8 31.83125Q300.3156 31.70625 301.3625 31.565624Q303.4875 31.315624 304.4875 30.971874Q304.5031 30.6125 304.5031 30.503124Q304.5031 29.440624 304.0031 28.9875Q303.33124 28.39375 302.0031 28.39375Q300.7531 28.39375 300.15936 28.83125Q299.58124 29.26875 299.3 30.378124L297.58124 30.14375Q297.8156 29.034374 298.34686 28.3625Q298.8781 27.675 299.89374 27.315624Q300.90936 26.940624 302.2531 26.940624Q303.58124 26.940624 304.40936 27.253124Q305.2375 27.565624 305.6281 28.05Q306.01874 28.51875 306.175 29.2375Q306.26874 29.690624 306.26874 30.8625L306.26874 33.20625Q306.26874 35.659374 306.3781 36.315624Q306.4875 36.95625 306.83124 37.55L304.9875 37.55Q304.72186 37.003124 304.64374 36.26875ZM304.4875 32.346874Q303.53436 32.7375 301.6125 33.003124Q300.53436 33.159374 300.08124 33.3625Q299.64374 33.55 299.39374 33.925Q299.14374 34.3 299.14374 34.76875Q299.14374 35.471874 299.675 35.940624Q300.20624 36.409374 301.2375 36.409374Q302.2531 36.409374 303.03436 35.971874Q303.83124 35.51875 304.20624 34.753124Q304.4875 34.14375 304.4875 32.9875L304.4875 32.346874ZM308.8625 37.55L308.8625 27.175L310.45624 27.175L310.45624 28.659374Q311.59686 26.940624 313.7531 26.940624Q314.6906 26.940624 315.47186 27.284374Q316.26874 27.6125 316.65936 28.159374Q317.05 28.70625 317.20624 29.45625Q317.3 29.95625 317.3 31.175L317.3 37.55L315.53436 37.55L315.53436 31.2375Q315.53436 30.159374 315.33124 29.628124Q315.1281 29.096874 314.59686 28.784374Q314.08124 28.471874 313.3781 28.471874Q312.2531 28.471874 311.4406 29.190624Q310.6281 29.89375 310.6281 31.878124L310.6281 37.55L308.8625 37.55ZM318.15936 34.45625L319.90936 34.175Q320.05 35.221874 320.72186 35.784374Q321.39374 36.33125 322.59686 36.33125Q323.8 36.33125 324.3781 35.846874Q324.97186 35.346874 324.97186 34.690624Q324.97186 34.096874 324.45624 33.753124Q324.09686 33.51875 322.65936 33.159374Q320.72186 32.659374 319.97186 32.315624Q319.2375 31.95625 318.84686 31.33125Q318.45624 30.690624 318.45624 29.925Q318.45624 29.2375 318.76874 28.64375Q319.09686 28.05 319.64374 27.659374Q320.05 27.3625 320.7531 27.159374Q321.47186 26.940624 322.28436 26.940624Q323.5031 26.940624 324.425 27.3Q325.34686 27.64375 325.78436 28.253124Q326.22186 28.846874 326.39374 29.846874L324.675 30.08125Q324.55 29.284374 323.9875 28.846874Q323.425 28.39375 322.40936 28.39375Q321.1906 28.39375 320.675 28.8Q320.15936 29.190624 320.15936 29.721874Q320.15936 30.065624 320.3781 30.346874Q320.58124 30.628124 321.05 30.815624Q321.3156 30.909374 322.59686 31.253124Q324.47186 31.753124 325.20624 32.08125Q325.9406 32.39375 326.3625 33.003124Q326.78436 33.596874 326.78436 34.503124Q326.78436 35.378124 326.26874 36.159374Q325.7531 36.940624 324.78436 37.3625Q323.8156 37.784374 322.59686 37.784374Q320.58124 37.784374 319.51874 36.940624Q318.45624 36.096874 318.15936 34.45625ZM328.22186 32.3625Q328.22186 29.4875 329.8156 28.096874Q331.15936 26.940624 333.08124 26.940624Q335.22186 26.940624 336.5656 28.346874Q337.925 29.753124 337.925 32.221874Q337.925 34.221874 337.33124 35.378124Q336.7375 36.51875 335.58124 37.159374Q334.4406 37.784374 333.08124 37.784374Q330.89374 37.784374 329.55 36.39375Q328.22186 34.9875 328.22186 32.3625ZM330.01874 32.3625Q330.01874 34.3625 330.8781 35.346874Q331.7531 36.33125 333.08124 36.33125Q334.39374 36.33125 335.2531 35.346874Q336.1281 34.346874 336.1281 32.3Q336.1281 30.378124 335.2531 29.39375Q334.3781 28.39375 333.08124 28.39375Q331.7531 28.39375 330.8781 29.39375Q330.01874 30.378124 330.01874 32.3625ZM339.8625 37.55L339.8625 27.175L341.4406 27.175L341.4406 28.628124Q341.925 27.878124 342.7375 27.409374Q343.55 26.940624 344.58124 26.940624Q345.7375 26.940624 346.47186 27.425Q347.20624 27.89375 347.51874 28.753124Q348.7531 26.940624 350.72186 26.940624Q352.26874 26.940624 353.09686 27.8Q353.925 28.659374 353.925 30.425L353.925 37.55L352.175 37.55L352.175 31.01875Q352.175 29.95625 352.0031 29.503124Q351.83124 29.034374 351.3781 28.753124Q350.9406 28.471874 350.33124 28.471874Q349.2375 28.471874 348.5031 29.20625Q347.78436 29.925 347.78436 31.51875L347.78436 37.55L346.03436 37.55L346.03436 30.815624Q346.03436 29.64375 345.59686 29.065624Q345.175 28.471874 344.1906 28.471874Q343.45624 28.471874 342.8156 28.8625Q342.1906 29.253124 341.90936 30.003124Q341.6281 30.753124 341.6281 32.175L341.6281 37.55L339.8625 37.55ZM357.78436 37.55L354.6125 27.175L356.425 27.175L358.08124 33.159374L358.6906 35.39375Q358.7375 35.221874 359.22186 33.253124L360.8781 27.175L362.6906 27.175L364.2375 33.190624L364.7531 35.175L365.34686 33.175L367.1281 27.175L368.83124 27.175L365.59686 37.55L363.76874 37.55L362.1125 31.33125L361.72186 29.565624L359.6125 37.55L357.78436 37.55ZM377.64374 36.26875Q376.65936 37.096874 375.7531 37.440624Q374.84686 37.784374 373.8156 37.784374Q372.1125 37.784374 371.1906 36.95625Q370.26874 36.1125 370.26874 34.815624Q370.26874 34.05 370.6125 33.425Q370.97186 32.8 371.53436 32.425Q372.09686 32.034374 372.8 31.83125Q373.3156 31.70625 374.3625 31.565624Q376.4875 31.315624 377.4875 30.971874Q377.5031 30.6125 377.5031 30.503124Q377.5031 29.440624 377.0031 28.9875Q376.33124 28.39375 375.0031 28.39375Q373.7531 28.39375 373.15936 28.83125Q372.58124 29.26875 372.3 30.378124L370.58124 30.14375Q370.8156 29.034374 371.34686 28.3625Q371.8781 27.675 372.89374 27.315624Q373.90936 26.940624 375.2531 26.940624Q376.58124 26.940624 377.40936 27.253124Q378.2375 27.565624 378.6281 28.05Q379.01874 28.51875 379.175 29.2375Q379.26874 29.690624 379.26874 30.8625L379.26874 33.20625Q379.26874 35.659374 379.3781 36.315624Q379.4875 36.95625 379.83124 37.55L377.9875 37.55Q377.72186 37.003124 377.64374 36.26875ZM377.4875 32.346874Q376.53436 32.7375 374.6125 33.003124Q373.53436 33.159374 373.08124 33.3625Q372.64374 33.55 372.39374 33.925Q372.14374 34.3 372.14374 34.76875Q372.14374 35.471874 372.675 35.940624Q373.20624 36.409374 374.2375 36.409374Q375.2531 36.409374 376.03436 35.971874Q376.83124 35.51875 377.20624 34.753124Q377.4875 34.14375 377.4875 32.9875L377.4875 32.346874ZM381.84686 37.55L381.84686 27.175L383.425 27.175L383.425 28.753124Q384.03436 27.64375 384.55 27.3Q385.0656 26.940624 385.675 26.940624Q386.5656 26.940624 387.4875 27.503124L386.8781 29.14375Q386.2375 28.753124 385.59686 28.753124Q385.01874 28.753124 384.55 29.1125Q384.09686 29.45625 383.89374 30.065624Q383.6125 31.003124 383.6125 32.1125L383.6125 37.55L381.84686 37.55ZM395.97186 34.20625L397.78436 34.440624Q397.3625 36.01875 396.1906 36.909374Q395.03436 37.784374 393.22186 37.784374Q390.95624 37.784374 389.6125 36.39375Q388.28436 34.9875 388.28436 32.45625Q388.28436 29.83125 389.6281 28.39375Q390.97186 26.940624 393.1281 26.940624Q395.20624 26.940624 396.51874 28.3625Q397.84686 29.76875 397.84686 32.346874Q397.84686 32.503124 397.83124 32.815624L390.09686 32.815624Q390.1906 34.51875 391.0656 35.425Q391.9406 36.33125 393.2375 36.33125Q394.20624 36.33125 394.8781 35.83125Q395.5656 35.315624 395.97186 34.20625ZM390.1906 31.3625L395.9875 31.3625Q395.8781 30.065624 395.33124 29.409374Q394.4875 28.39375 393.14374 28.39375Q391.9406 28.39375 391.1125 29.20625Q390.28436 30.003124 390.1906 31.3625Z" fill-rule="nonzero"/></svg>